<svg xmlns="http://www.w3.org/2000/svg" xmlns:xlink="http://www.w3.org/1999/xlink" width="1920" zoomAndPan="magnify" viewBox="0 0 1440 809.999993" height="1080" preserveAspectRatio="xMidYMid meet" version="1.2"><defs><clipPath id="7c420aaeb2"><path d="M 378.835938 63.835938 L 1061.335938 63.835938 L 1061.335938 746.335938 L 378.835938 746.335938 Z M 378.835938 63.835938 "/></clipPath></defs><g id="52db2d58dc"><g clip-rule="nonzero" clip-path="url(#7c420aaeb2)"><path style=" stroke:none;fill-rule:nonzero;fill:#ffffff;fill-opacity:1;" d="M 509.207031 459.585938 C 497.265625 453.820312 483.9375 450.488281 469.8125 450.488281 C 419.652344 450.488281 378.835938 491.300781 378.835938 541.464844 C 378.835938 591.625 419.652344 632.441406 469.8125 632.441406 C 501.289062 632.441406 529.074219 616.359375 545.414062 591.988281 L 631.351562 635.011719 C 629.875 641.503906 629.023438 648.246094 629.023438 655.183594 C 629.023438 705.347656 669.835938 746.160156 720 746.160156 C 770.160156 746.160156 810.976562 705.347656 810.976562 655.183594 C 810.976562 636.328125 805.210938 618.804688 795.339844 604.261719 L 916.097656 477.996094 C 931.246094 489.230469 949.917969 495.976562 970.183594 495.976562 C 1020.347656 495.976562 1061.160156 455.160156 1061.160156 405 C 1061.160156 354.835938 1020.347656 314.023438 970.183594 314.023438 C 949.191406 314.023438 929.902344 321.230469 914.484375 333.21875 L 791.777344 210.511719 C 803.765625 195.09375 810.976562 175.804688 810.976562 154.8125 C 810.976562 104.652344 770.160156 63.835938 720 63.835938 C 669.835938 63.835938 629.023438 104.652344 629.023438 154.8125 C 629.023438 161.726562 629.863281 168.449219 631.34375 174.929688 L 550.691406 204.316406 C 535.566406 174.964844 505.03125 154.8125 469.8125 154.8125 C 419.652344 154.8125 378.835938 195.628906 378.835938 245.789062 C 378.835938 295.953125 419.652344 336.765625 469.8125 336.765625 C 482.753906 336.765625 495.046875 334.015625 506.203125 329.113281 L 548.0625 399.5625 Z M 469.8125 609.695312 C 432.183594 609.695312 401.582031 579.09375 401.582031 541.464844 C 401.582031 503.832031 432.183594 473.230469 469.8125 473.230469 C 507.441406 473.230469 538.046875 503.832031 538.046875 541.464844 C 538.046875 579.09375 507.441406 609.695312 469.8125 609.695312 Z M 555.546875 571.609375 C 558.878906 562.160156 560.789062 552.039062 560.789062 541.464844 C 560.789062 513.566406 548.144531 488.59375 528.320312 471.898438 L 561.027344 421.386719 L 659.636719 587.316406 C 651.332031 594.707031 644.386719 603.554688 639.234375 613.503906 Z M 720 245.789062 C 740.992188 245.789062 760.277344 238.578125 775.699219 226.59375 L 898.414062 349.308594 C 891.058594 358.769531 885.554688 369.699219 882.378906 381.59375 L 810.941406 371.769531 C 810.929688 371.472656 810.976562 371.179688 810.976562 370.882812 C 810.976562 320.71875 770.160156 279.90625 720 279.90625 C 688.519531 279.90625 660.726562 295.984375 644.398438 320.355469 L 630.828125 313.578125 L 680.617188 236.691406 C 692.546875 242.457031 705.875 245.789062 720 245.789062 Z M 731.371094 564.992188 L 731.371094 461.0625 C 768.328125 456.421875 798.398438 429.5625 807.8125 394.285156 L 879.253906 404.113281 C 879.253906 404.40625 879.207031 404.703125 879.207031 405 C 879.207031 426.71875 886.871094 446.65625 899.621094 462.3125 L 780.214844 587.167969 C 766.828125 575.304688 749.988281 567.335938 731.371094 564.992188 Z M 720 302.648438 C 757.628906 302.648438 788.230469 333.253906 788.230469 370.882812 C 788.230469 408.511719 757.628906 439.113281 720 439.113281 C 682.367188 439.113281 651.765625 408.511719 651.765625 370.882812 C 651.765625 333.253906 682.367188 302.648438 720 302.648438 Z M 634.265625 340.734375 C 630.933594 350.183594 629.023438 360.304688 629.023438 370.882812 C 629.023438 417.1875 663.820312 455.445312 708.625 461.074219 L 708.625 565.003906 C 697.84375 566.355469 687.667969 569.585938 678.398438 574.375 L 574.824219 400.074219 L 618.390625 332.796875 Z M 720 723.417969 C 682.367188 723.417969 651.765625 692.8125 651.765625 655.183594 C 651.765625 617.554688 682.367188 586.953125 720 586.953125 C 757.628906 586.953125 788.230469 617.554688 788.230469 655.183594 C 788.230469 692.8125 757.628906 723.417969 720 723.417969 Z M 970.183594 336.765625 C 1007.8125 336.765625 1038.417969 367.367188 1038.417969 405 C 1038.417969 442.628906 1007.8125 473.230469 970.183594 473.230469 C 932.554688 473.230469 901.953125 442.628906 901.953125 405 C 901.953125 367.367188 932.554688 336.765625 970.183594 336.765625 Z M 720 86.582031 C 757.628906 86.582031 788.230469 117.183594 788.230469 154.8125 C 788.230469 192.441406 757.628906 223.046875 720 223.046875 C 682.367188 223.046875 651.765625 192.441406 651.765625 154.8125 C 651.765625 117.183594 682.367188 86.582031 720 86.582031 Z M 639.121094 196.285156 C 644.679688 207.078125 652.289062 216.621094 661.488281 224.375 L 610.359375 303.34375 L 555.546875 275.9375 C 558.878906 266.488281 560.789062 256.367188 560.789062 245.789062 C 560.789062 238.875 559.949219 232.15625 558.46875 225.671875 Z M 401.582031 245.789062 C 401.582031 208.160156 432.183594 177.558594 469.8125 177.558594 C 507.441406 177.558594 538.046875 208.160156 538.046875 245.789062 C 538.046875 283.417969 507.441406 314.023438 469.8125 314.023438 C 432.183594 314.023438 401.582031 283.417969 401.582031 245.789062 Z M 525.707031 317.421875 C 533.324219 311.464844 540.011719 304.367188 545.414062 296.316406 L 597.917969 322.5625 L 561.859375 378.25 Z M 525.707031 317.421875 "/></g></g></svg>