<svg xmlns="http://www.w3.org/2000/svg" xmlns:xlink="http://www.w3.org/1999/xlink" width="1920" zoomAndPan="magnify" viewBox="0 0 1440 809.999993" height="1080" preserveAspectRatio="xMidYMid meet" version="1.2"><defs><clipPath id="618b824239"><path d="M 511 87.507812 L 928 87.507812 L 928 239 L 511 239 Z M 511 87.507812 "/></clipPath><clipPath id="42a4a2dcc1"><path d="M 501 641 L 584 641 L 584 722.757812 L 501 722.757812 Z M 501 641 "/></clipPath><clipPath id="c31d5612b7"><path d="M 616 641 L 699 641 L 699 722.757812 L 616 722.757812 Z M 616 641 "/></clipPath><clipPath id="6bbcb7a5e1"><path d="M 397.675781 496 L 479 496 L 479 578 L 397.675781 578 Z M 397.675781 496 "/></clipPath></defs><g id="baa44b0fba"><g clip-rule="nonzero" clip-path="url(#618b824239)"><path style=" stroke:none;fill-rule:nonzero;fill:#ffffff;fill-opacity:1;" d="M 614.964844 206.742188 L 824.125 206.742188 C 838.726562 206.742188 850.597656 194.875 850.597656 180.273438 L 850.597656 154.71875 L 900.910156 154.71875 C 907.371094 154.71875 912.617188 159.964844 912.617188 166.421875 L 912.617188 231.472656 C 912.617188 235.546875 915.921875 238.855469 920 238.855469 C 924.074219 238.855469 927.378906 235.546875 927.378906 231.472656 L 927.378906 166.421875 C 927.378906 151.824219 915.511719 139.953125 900.910156 139.953125 L 850.597656 139.953125 L 850.597656 114.398438 C 850.597656 99.796875 838.726562 87.929688 824.125 87.929688 L 614.964844 87.929688 C 600.367188 87.929688 588.496094 99.796875 588.496094 114.398438 L 588.496094 139.953125 L 538.179688 139.953125 C 523.582031 139.953125 511.710938 151.824219 511.710938 166.421875 L 511.710938 231.472656 C 511.710938 235.546875 515.019531 238.855469 519.09375 238.855469 C 523.167969 238.855469 526.472656 235.546875 526.472656 231.472656 L 526.472656 166.421875 C 526.472656 159.964844 531.722656 154.71875 538.179688 154.71875 L 588.496094 154.71875 L 588.496094 180.273438 C 588.496094 194.875 600.367188 206.742188 614.964844 206.742188 Z M 603.257812 114.398438 C 603.257812 107.9375 608.507812 102.691406 614.964844 102.691406 L 824.125 102.691406 C 830.585938 102.691406 835.832031 107.9375 835.832031 114.398438 L 835.832031 180.273438 C 835.832031 186.734375 830.585938 191.980469 824.125 191.980469 L 614.964844 191.980469 C 608.507812 191.980469 603.257812 186.734375 603.257812 180.273438 Z M 603.257812 114.398438 "/></g><path style=" stroke:none;fill-rule:nonzero;fill:#ffffff;fill-opacity:1;" d="M 632.863281 137.617188 L 806.230469 137.617188 C 810.304688 137.617188 813.613281 134.3125 813.613281 130.238281 C 813.613281 126.160156 810.304688 122.855469 806.230469 122.855469 L 632.863281 122.855469 C 628.785156 122.855469 625.480469 126.160156 625.480469 130.238281 C 625.480469 134.3125 628.785156 137.617188 632.863281 137.617188 Z M 632.863281 137.617188 "/><path style=" stroke:none;fill-rule:nonzero;fill:#ffffff;fill-opacity:1;" d="M 632.457031 171.816406 L 738.59375 171.816406 C 742.671875 171.816406 745.976562 168.507812 745.976562 164.433594 C 745.976562 160.359375 742.671875 157.054688 738.59375 157.054688 L 632.457031 157.054688 C 628.382812 157.054688 625.078125 160.359375 625.078125 164.433594 C 625.078125 168.507812 628.382812 171.816406 632.457031 171.816406 Z M 632.457031 171.816406 "/><path style=" stroke:none;fill-rule:nonzero;fill:#ffffff;fill-opacity:1;" d="M 437.992188 481.519531 C 442.066406 481.519531 445.375 478.214844 445.375 474.140625 L 445.375 453.457031 C 445.375 446.996094 450.621094 441.75 457.082031 441.75 L 581.105469 441.75 C 587.5625 441.75 592.8125 446.996094 592.8125 453.457031 L 592.8125 474.140625 C 592.8125 478.214844 596.117188 481.519531 600.191406 481.519531 C 604.269531 481.519531 607.574219 478.214844 607.574219 474.140625 L 607.574219 453.457031 C 607.574219 438.855469 595.703125 426.984375 581.105469 426.984375 L 526.472656 426.984375 L 526.472656 394.152344 L 562.632812 394.152344 C 576.992188 394.152344 588.679688 382.464844 588.679688 368.105469 L 588.679688 281.027344 C 588.679688 266.667969 576.992188 254.980469 562.632812 254.980469 L 475.554688 254.980469 C 461.195312 254.980469 449.507812 266.667969 449.507812 281.027344 L 449.507812 368.105469 C 449.507812 382.464844 461.195312 394.152344 475.554688 394.152344 L 511.710938 394.152344 L 511.710938 426.984375 L 457.082031 426.984375 C 442.480469 426.984375 430.609375 438.855469 430.609375 453.457031 L 430.609375 474.140625 C 430.609375 478.214844 433.917969 481.519531 437.992188 481.519531 Z M 464.269531 368.105469 L 464.269531 281.027344 C 464.269531 274.808594 469.335938 269.746094 475.554688 269.746094 L 562.632812 269.746094 C 568.851562 269.746094 573.914062 274.808594 573.914062 281.027344 L 573.914062 368.105469 C 573.914062 374.324219 568.851562 379.390625 562.632812 379.390625 L 475.554688 379.390625 C 469.335938 379.390625 464.269531 374.324219 464.269531 368.105469 Z M 464.269531 368.105469 "/><path style=" stroke:none;fill-rule:nonzero;fill:#ffffff;fill-opacity:1;" d="M 556.183594 589.234375 C 544.648438 589.234375 535.257812 598.625 535.257812 610.15625 L 535.257812 622.066406 C 535.257812 626.140625 538.566406 629.449219 542.640625 629.449219 C 546.714844 629.449219 550.023438 626.140625 550.023438 622.066406 L 550.023438 610.15625 C 550.023438 606.765625 552.789062 603.996094 556.183594 603.996094 L 644.203125 603.996094 C 647.597656 603.996094 650.363281 606.765625 650.363281 610.15625 L 650.363281 622.066406 C 650.363281 626.140625 653.671875 629.449219 657.746094 629.449219 C 661.820312 629.449219 665.125 626.140625 665.125 622.066406 L 665.125 610.15625 C 665.125 598.625 655.738281 589.234375 644.203125 589.234375 L 607.574219 589.234375 L 607.574219 577.042969 C 626.515625 573.554688 640.96875 556.953125 640.96875 536.941406 C 640.96875 514.503906 622.664062 496.195312 600.222656 496.195312 C 577.683594 496.195312 559.378906 514.503906 559.378906 536.941406 C 559.378906 556.941406 573.816406 573.539062 592.8125 577.039062 L 592.8125 589.234375 Z M 582.703125 544.027344 L 589.789062 536.941406 L 582.703125 529.855469 C 579.75 527.003906 579.75 522.277344 582.703125 519.421875 C 585.558594 516.570312 590.183594 516.570312 593.136719 519.421875 L 600.222656 526.511719 L 607.308594 519.421875 C 610.164062 516.570312 614.789062 516.570312 617.742188 519.421875 C 620.59375 522.277344 620.59375 527.003906 617.742188 529.855469 L 610.65625 536.941406 L 617.742188 544.027344 C 622.320312 548.609375 619.109375 556.625 612.527344 556.625 C 610.558594 556.625 608.6875 555.9375 607.308594 554.460938 L 600.222656 547.375 L 593.136719 554.460938 C 591.660156 555.9375 589.789062 556.625 587.921875 556.625 C 581.273438 556.625 578.003906 548.570312 582.703125 544.027344 Z M 582.703125 544.027344 "/><path style=" stroke:none;fill-rule:nonzero;fill:#ffffff;fill-opacity:1;" d="M 1001.089844 481.519531 C 1005.164062 481.519531 1008.472656 478.214844 1008.472656 474.140625 L 1008.472656 453.457031 C 1008.472656 438.855469 996.601562 426.984375 982 426.984375 L 927.371094 426.984375 L 927.371094 393.753906 C 962.285156 390.058594 989.585938 360.445312 989.585938 324.566406 C 989.585938 286.199219 958.367188 254.980469 920 254.980469 C 881.628906 254.980469 850.414062 286.199219 850.414062 324.566406 C 850.414062 360.4375 877.703125 390.042969 912.609375 393.75 L 912.609375 426.984375 L 857.976562 426.984375 C 843.378906 426.984375 831.507812 438.855469 831.507812 453.457031 L 831.507812 474.140625 C 831.507812 478.214844 834.8125 481.519531 838.890625 481.519531 C 842.964844 481.519531 846.269531 478.214844 846.269531 474.140625 L 846.269531 453.457031 C 846.269531 446.996094 851.519531 441.75 857.976562 441.75 L 982 441.75 C 988.460938 441.75 993.707031 446.996094 993.707031 453.457031 L 993.707031 474.140625 C 993.707031 478.214844 997.015625 481.519531 1001.089844 481.519531 Z M 865.175781 324.566406 C 865.175781 294.339844 889.769531 269.746094 920 269.746094 C 950.226562 269.746094 974.820312 294.339844 974.820312 324.566406 C 974.820312 354.796875 950.226562 379.390625 920 379.390625 C 889.769531 379.390625 865.175781 354.796875 865.175781 324.566406 Z M 865.175781 324.566406 "/><path style=" stroke:none;fill-rule:nonzero;fill:#ffffff;fill-opacity:1;" d="M 547.753906 305.289062 C 545.265625 302.058594 540.640625 301.441406 537.402344 303.914062 L 507.875 326.527344 L 502.175781 319.800781 C 499.535156 316.667969 494.871094 316.300781 491.777344 318.9375 C 488.664062 321.570312 488.277344 326.222656 490.914062 329.335938 L 501.148438 341.4375 C 503.667969 344.421875 508.117188 344.9375 511.269531 342.53125 L 546.378906 315.640625 C 549.617188 313.160156 550.234375 308.527344 547.753906 305.289062 Z M 547.753906 305.289062 "/><path style=" stroke:none;fill-rule:nonzero;fill:#ffffff;fill-opacity:1;" d="M 933.445312 348.453125 C 936.328125 351.335938 941 351.335938 943.882812 348.453125 C 946.765625 345.570312 946.765625 340.898438 943.882812 338.015625 L 930.441406 324.566406 L 943.882812 311.121094 C 946.765625 308.238281 946.765625 303.566406 943.882812 300.683594 C 941 297.800781 936.328125 297.800781 933.445312 300.683594 L 920.003906 314.128906 L 906.5625 300.683594 C 903.6875 297.808594 899.015625 297.789062 896.125 300.683594 C 893.242188 303.566406 893.242188 308.238281 896.125 311.121094 L 909.566406 324.566406 L 896.125 338.015625 C 891.453125 342.6875 894.839844 350.613281 901.34375 350.613281 C 903.238281 350.613281 905.121094 349.894531 906.5625 348.453125 L 920.003906 335.003906 Z M 933.445312 348.453125 "/><g clip-rule="nonzero" clip-path="url(#42a4a2dcc1)"><path style=" stroke:none;fill-rule:nonzero;fill:#ffffff;fill-opacity:1;" d="M 501.902344 658.390625 L 501.902344 706.125 C 501.902344 715.476562 509.480469 723.054688 518.730469 723.054688 L 566.464844 723.054688 C 575.816406 723.054688 583.394531 715.476562 583.394531 706.125 L 583.394531 658.390625 C 583.394531 649.042969 575.816406 641.464844 566.464844 641.464844 L 518.730469 641.464844 C 509.480469 641.464844 501.902344 649.042969 501.902344 658.390625 Z M 530.835938 678.46875 L 534.183594 682.40625 L 555.539062 666.070312 C 558.789062 663.609375 563.414062 664.199219 565.875 667.445312 C 568.335938 670.695312 567.742188 675.320312 564.496094 677.78125 L 537.628906 698.449219 C 534.351562 700.785156 530.066406 700.285156 527.488281 697.367188 L 519.617188 688.015625 C 516.960938 684.964844 517.351562 680.242188 520.503906 677.683594 C 523.554688 675.023438 528.277344 675.417969 530.835938 678.46875 Z M 530.835938 678.46875 "/></g><g clip-rule="nonzero" clip-path="url(#c31d5612b7)"><path style=" stroke:none;fill-rule:nonzero;fill:#ffffff;fill-opacity:1;" d="M 616.953125 682.207031 C 616.953125 704.746094 635.261719 723.054688 657.699219 723.054688 C 680.238281 723.054688 698.542969 704.746094 698.542969 682.207031 C 698.542969 659.769531 680.238281 641.464844 657.699219 641.464844 C 635.261719 641.464844 616.953125 659.769531 616.953125 682.207031 Z M 675.21875 664.691406 C 678.171875 667.644531 678.171875 672.269531 675.21875 675.121094 L 668.132812 682.207031 L 675.21875 689.296875 C 678.171875 692.246094 678.171875 696.875 675.21875 699.726562 C 672.6875 702.441406 667.847656 702.792969 664.785156 699.726562 L 657.699219 692.640625 L 650.613281 699.726562 C 648.082031 702.441406 643.242188 702.792969 640.183594 699.726562 C 637.328125 696.875 637.328125 692.246094 640.183594 689.296875 L 647.269531 682.207031 L 640.183594 675.121094 C 637.328125 672.269531 637.328125 667.644531 640.183594 664.691406 C 643.132812 661.835938 647.757812 661.835938 650.613281 664.691406 L 657.699219 671.777344 L 664.785156 664.691406 C 667.738281 661.835938 672.363281 661.835938 675.21875 664.691406 Z M 675.21875 664.691406 "/></g><g clip-rule="nonzero" clip-path="url(#6bbcb7a5e1)"><path style=" stroke:none;fill-rule:nonzero;fill:#ffffff;fill-opacity:1;" d="M 414.109375 577.785156 L 461.84375 577.785156 C 471.195312 577.785156 478.773438 570.207031 478.773438 560.859375 L 478.773438 513.125 C 478.773438 503.773438 471.195312 496.195312 461.84375 496.195312 L 414.109375 496.195312 C 404.859375 496.195312 397.183594 503.773438 397.183594 513.125 L 397.183594 560.859375 C 397.183594 570.207031 404.859375 577.785156 414.109375 577.785156 Z M 415.882812 532.414062 C 418.933594 529.757812 423.660156 530.152344 426.214844 533.203125 L 429.5625 537.136719 L 450.917969 520.800781 C 454.167969 518.339844 458.792969 518.933594 461.253906 522.179688 C 463.714844 525.425781 463.121094 530.050781 459.875 532.511719 L 433.007812 553.183594 C 429.578125 555.628906 425.113281 554.886719 422.871094 552 L 414.996094 542.75 C 412.339844 539.699219 412.734375 534.972656 415.882812 532.414062 Z M 415.882812 532.414062 "/></g><path style=" stroke:none;fill-rule:nonzero;fill:#ffffff;fill-opacity:1;" d="M 798.144531 513.125 L 798.144531 560.859375 C 798.144531 570.207031 805.722656 577.785156 815.070312 577.785156 L 862.804688 577.785156 C 872.058594 577.785156 879.734375 570.207031 879.734375 560.859375 L 879.734375 513.125 C 879.734375 503.773438 872.058594 496.195312 862.804688 496.195312 L 815.070312 496.195312 C 805.722656 496.195312 798.144531 503.773438 798.144531 513.125 Z M 816.746094 532.414062 C 819.894531 529.757812 824.523438 530.152344 827.179688 533.203125 L 830.425781 537.136719 L 851.785156 520.800781 C 855.03125 518.339844 859.65625 518.933594 862.214844 522.179688 C 864.675781 525.425781 863.988281 530.050781 860.835938 532.511719 L 833.871094 553.183594 C 830.601562 555.515625 826.277344 555.054688 823.734375 552 L 815.859375 542.75 C 813.300781 539.699219 813.597656 534.972656 816.746094 532.414062 Z M 816.746094 532.414062 "/><path style=" stroke:none;fill-rule:nonzero;fill:#ffffff;fill-opacity:1;" d="M 1001.085938 496.195312 C 978.644531 496.195312 960.339844 514.503906 960.339844 536.941406 C 960.339844 559.480469 978.644531 577.785156 1001.085938 577.785156 C 1023.625 577.785156 1041.832031 559.480469 1041.832031 536.941406 C 1041.832031 514.503906 1023.625 496.195312 1001.085938 496.195312 Z M 1018.605469 544.027344 C 1021.460938 546.882812 1021.460938 551.605469 1018.605469 554.460938 C 1015.71875 557.347656 1011.0625 557.355469 1008.171875 554.460938 L 1001.085938 547.375 L 994 554.460938 C 991.113281 557.347656 986.457031 557.355469 983.566406 554.460938 C 980.710938 551.605469 980.710938 546.882812 983.566406 544.027344 L 990.652344 536.941406 L 983.566406 529.855469 C 980.710938 527.003906 980.710938 522.277344 983.566406 519.421875 C 986.421875 516.570312 991.144531 516.570312 994 519.421875 L 1001.085938 526.511719 L 1008.171875 519.421875 C 1011.027344 516.570312 1015.75 516.570312 1018.605469 519.421875 C 1021.460938 522.277344 1021.460938 527.003906 1018.605469 529.855469 L 1011.519531 536.941406 Z M 1018.605469 544.027344 "/></g></svg>