<svg xmlns="http://www.w3.org/2000/svg" xmlns:xlink="http://www.w3.org/1999/xlink" width="1920" zoomAndPan="magnify" viewBox="0 0 1440 809.999993" height="1080" preserveAspectRatio="xMidYMid meet" version="1.2"><defs><clipPath id="d7758250d0"><path d="M 430.644531 115.644531 L 1009.644531 115.644531 L 1009.644531 694.644531 L 430.644531 694.644531 Z M 430.644531 115.644531 "/></clipPath></defs><g id="12e77d5594"><g clip-rule="nonzero" clip-path="url(#d7758250d0)"><path style=" stroke:none;fill-rule:nonzero;fill:#ffffff;fill-opacity:1;" d="M 936.027344 212.707031 C 935.214844 211.484375 934.25 210.433594 933.171875 209.539062 C 880.242188 151.839844 804.261719 115.601562 719.96875 115.601562 C 635.679688 115.601562 559.710938 151.839844 506.769531 209.539062 C 505.6875 210.433594 504.722656 211.5 503.914062 212.707031 C 458.359375 263.859375 430.617188 331.21875 430.617188 404.941406 C 430.617188 564.492188 560.421875 694.28125 719.957031 694.28125 C 879.492188 694.28125 1009.296875 564.476562 1009.296875 404.941406 C 1009.296875 331.21875 981.566406 263.859375 935.996094 212.707031 Z M 925.414062 563.3125 C 905.558594 551.578125 880.726562 539.207031 851.421875 529.050781 C 864.449219 493.722656 871.761719 457.230469 873.296875 419.871094 L 979.054688 419.871094 C 975.984375 473.679688 956.453125 523.15625 925.414062 563.328125 Z M 460.902344 419.855469 L 565.207031 419.855469 C 566.757812 457.371094 574.113281 494.019531 587.238281 529.488281 C 558.488281 539.5625 534.085938 551.734375 514.523438 563.296875 C 483.488281 523.125 463.957031 473.664062 460.886719 419.84375 Z M 519.539062 240.277344 C 538.941406 251.371094 562.695312 262.820312 590.363281 272.269531 C 575.292969 310.265625 566.871094 349.640625 565.207031 390.027344 L 460.902344 390.027344 C 464.125 333.363281 485.605469 281.515625 519.539062 240.277344 Z M 705.054688 293.488281 L 705.054688 390.027344 L 595.082031 390.027344 C 596.957031 349.328125 606.34375 312.78125 619.285156 280.933594 C 645.195312 287.667969 673.875 292.339844 705.070312 293.488281 Z M 631.871094 253.347656 C 655.820312 206.214844 685.949219 171.996094 705.054688 153.0625 L 705.054688 263.632812 C 678.648438 262.582031 654.203125 258.800781 631.871094 253.332031 Z M 734.886719 293.488281 C 765.539062 292.355469 793.792969 287.824219 819.363281 281.273438 C 832.230469 313.035156 841.550781 349.472656 843.425781 390.027344 L 734.886719 390.027344 Z M 734.886719 263.644531 L 734.886719 154.507812 C 754.074219 173.742188 783.394531 207.535156 806.777344 253.660156 C 784.800781 258.957031 760.78125 262.609375 734.886719 263.644531 Z M 816.25 209.296875 C 801.746094 185.945312 786.476562 166.457031 772.472656 150.773438 C 821.179688 160.816406 864.945312 184.566406 899.546875 217.777344 C 881.835938 227.480469 860.613281 237.253906 836.195312 245.292969 C 830.242188 233.132812 823.609375 221.128906 816.25 209.296875 Z M 622.242188 209.296875 C 614.96875 220.988281 608.390625 232.863281 602.496094 244.882812 C 578.601562 236.914062 557.792969 227.308594 540.390625 217.777344 C 574.570312 184.980469 617.679688 161.414062 665.679688 151.15625 C 651.773438 166.769531 636.628906 186.128906 622.242188 209.296875 Z M 595.082031 419.855469 L 705.054688 419.855469 L 705.054688 507.1875 C 672.566406 508.382812 642.765625 513.410156 616.019531 520.597656 C 604.78125 490.769531 596.800781 457.046875 595.082031 419.871094 Z M 705.054688 537.03125 L 705.054688 656.824219 C 684.871094 636.824219 652.355469 599.734375 627.835938 548.355469 C 651.234375 542.34375 677.058594 538.15625 705.054688 537.03125 Z M 734.886719 537.03125 C 762.371094 538.125 787.753906 542.1875 810.824219 548.011719 C 786.859375 598.355469 755.210938 635.019531 734.886719 655.375 Z M 734.886719 507.1875 L 734.886719 419.855469 L 843.425781 419.855469 C 841.71875 456.902344 833.78125 490.496094 822.613281 520.242188 C 796.195312 513.238281 766.847656 508.351562 734.886719 507.175781 Z M 873.285156 390.027344 C 871.621094 349.785156 863.269531 310.550781 848.296875 272.695312 C 876.523438 263.164062 900.699219 251.542969 920.402344 240.277344 C 954.335938 281.515625 975.8125 333.363281 979.039062 390.027344 Z M 534.46875 586.222656 C 552.125 576.125 573.660156 565.726562 598.730469 557.074219 C 605.550781 571.820312 613.390625 586.324219 622.242188 600.601562 C 636.628906 623.753906 651.773438 643.113281 665.679688 658.742188 C 614.867188 647.886719 569.527344 622.105469 534.46875 586.238281 Z M 772.472656 659.109375 C 786.476562 643.425781 801.746094 623.9375 816.25 600.585938 C 825.199219 586.183594 833.097656 571.523438 839.957031 556.648438 C 865.542969 565.386719 887.515625 575.96875 905.472656 586.222656 C 870.003906 622.519531 824.007812 648.484375 772.472656 659.109375 Z M 772.472656 659.109375 "/></g></g></svg>