<svg xmlns="http://www.w3.org/2000/svg" xmlns:xlink="http://www.w3.org/1999/xlink" width="1920" zoomAndPan="magnify" viewBox="0 0 1440 809.999993" height="1080" preserveAspectRatio="xMidYMid meet" version="1.2"><defs><clipPath id="0b0135b595"><path d="M 388.71875 77 L 1050 77 L 1050 733 L 388.71875 733 Z M 388.71875 77 "/></clipPath></defs><g id="67560d29bd"><g clip-rule="nonzero" clip-path="url(#0b0135b595)"><path style=" stroke:none;fill-rule:nonzero;fill:#ffffff;fill-opacity:1;" d="M 1046.835938 683.277344 L 1023.070312 659.515625 C 1018.9375 655.382812 1012.742188 655.382812 1008.609375 659.515625 C 1004.476562 663.644531 1004.476562 669.84375 1008.609375 673.976562 L 1014.804688 680.175781 L 441.40625 680.175781 L 441.40625 607.855469 L 471.367188 607.855469 C 497.199219 607.855469 519.925781 590.292969 526.125 565.496094 C 528.191406 558.265625 534.390625 553.097656 541.625 553.097656 C 567.453125 553.097656 590.179688 538.636719 603.613281 517.972656 L 648.039062 580.996094 C 658.371094 595.457031 674.898438 603.722656 693.496094 602.691406 C 711.058594 601.65625 727.589844 591.324219 735.855469 575.828125 L 775.117188 505.574219 C 778.214844 509.707031 782.347656 512.804688 786.480469 514.871094 C 827.804688 539.667969 868.097656 484.910156 940.417969 534.503906 C 945.585938 537.601562 951.785156 536.570312 954.882812 531.402344 C 957.984375 526.238281 956.949219 520.039062 951.785156 516.9375 C 872.230469 462.183594 826.773438 514.871094 796.8125 496.277344 C 791.644531 493.175781 788.546875 489.042969 785.445312 484.910156 L 872.230469 329.9375 C 888.761719 299.976562 936.289062 311.34375 936.289062 346.46875 L 936.289062 359.898438 C 936.289062 366.097656 940.417969 370.230469 946.617188 370.230469 C 952.816406 370.230469 956.949219 366.097656 956.949219 359.898438 L 956.949219 346.46875 C 956.949219 290.679688 881.53125 271.050781 854.667969 319.605469 L 779.25 454.949219 L 742.054688 222.492188 C 733.789062 169.800781 659.402344 168.765625 648.039062 220.425781 L 595.347656 471.480469 L 561.253906 423.957031 C 559.1875 420.855469 556.085938 419.824219 552.988281 419.824219 L 441.40625 419.824219 L 441.40625 112.976562 L 447.605469 119.175781 C 451.738281 123.308594 457.9375 123.308594 462.070312 119.175781 C 466.203125 115.042969 466.203125 108.84375 462.070312 104.710938 L 438.308594 80.949219 C 434.175781 76.816406 427.976562 76.816406 423.84375 80.949219 L 400.082031 104.710938 C 395.949219 108.84375 395.949219 115.042969 400.082031 119.175781 C 404.214844 123.308594 410.414062 123.308594 414.546875 119.175781 L 420.746094 112.976562 L 420.746094 148.105469 L 399.046875 148.105469 C 392.847656 148.105469 388.71875 152.238281 388.71875 158.433594 C 388.71875 164.632812 392.847656 168.765625 399.046875 168.765625 L 420.746094 168.765625 L 420.746094 202.859375 L 399.046875 202.859375 C 392.847656 202.859375 388.71875 206.992188 388.71875 213.191406 C 388.71875 219.390625 392.847656 223.523438 399.046875 223.523438 L 420.746094 223.523438 L 420.746094 257.617188 L 399.046875 257.617188 C 392.847656 257.617188 388.71875 261.75 388.71875 267.949219 C 388.71875 274.148438 392.847656 278.28125 399.046875 278.28125 L 420.746094 278.28125 L 420.746094 312.375 L 399.046875 312.375 C 392.847656 312.375 388.71875 316.507812 388.71875 322.707031 C 388.71875 328.90625 392.847656 333.039062 399.046875 333.039062 L 420.746094 333.039062 L 420.746094 367.132812 L 399.046875 367.132812 C 392.847656 367.132812 388.71875 371.265625 388.71875 377.464844 C 388.71875 383.664062 392.847656 387.796875 399.046875 387.796875 L 420.746094 387.796875 L 420.746094 421.890625 L 399.046875 421.890625 C 392.847656 421.890625 388.71875 426.023438 388.71875 432.21875 C 388.71875 438.417969 392.847656 442.550781 399.046875 442.550781 L 420.746094 442.550781 L 420.746094 477.679688 L 399.046875 477.679688 C 392.847656 477.679688 388.71875 481.8125 388.71875 488.011719 C 388.71875 494.210938 392.847656 498.34375 399.046875 498.34375 L 420.746094 498.34375 L 420.746094 532.4375 L 399.046875 532.4375 C 392.847656 532.4375 388.71875 536.570312 388.71875 542.769531 C 388.71875 548.964844 392.847656 553.097656 399.046875 553.097656 L 420.746094 553.097656 L 420.746094 587.191406 L 399.046875 587.191406 C 392.847656 587.191406 388.71875 591.324219 388.71875 597.523438 C 388.71875 603.722656 392.847656 607.855469 399.046875 607.855469 L 420.746094 607.855469 L 420.746094 641.949219 L 399.046875 641.949219 C 392.847656 641.949219 388.71875 646.082031 388.71875 652.28125 C 388.71875 658.480469 392.847656 662.613281 399.046875 662.613281 L 420.746094 662.613281 L 420.746094 690.507812 C 420.746094 696.707031 424.878906 700.839844 431.074219 700.839844 L 462.070312 700.839844 L 462.070312 722.535156 C 462.070312 728.734375 466.203125 732.867188 472.402344 732.867188 C 478.601562 732.867188 482.734375 728.734375 482.734375 722.535156 L 482.734375 700.839844 L 516.828125 700.839844 L 516.828125 722.535156 C 516.828125 728.734375 520.960938 732.867188 527.160156 732.867188 C 533.359375 732.867188 537.492188 728.734375 537.492188 722.535156 L 537.492188 700.839844 L 571.585938 700.839844 L 571.585938 722.535156 C 571.585938 728.734375 575.71875 732.867188 581.917969 732.867188 C 588.113281 732.867188 592.246094 728.734375 592.246094 722.535156 L 592.246094 700.839844 L 626.339844 700.839844 L 626.339844 722.535156 C 626.339844 728.734375 630.472656 732.867188 636.671875 732.867188 C 642.871094 732.867188 647.003906 728.734375 647.003906 722.535156 L 647.003906 700.839844 L 681.097656 700.839844 L 681.097656 722.535156 C 681.097656 728.734375 685.230469 732.867188 691.429688 732.867188 C 697.628906 732.867188 701.761719 728.734375 701.761719 722.535156 L 701.761719 700.839844 L 735.855469 700.839844 L 735.855469 722.535156 C 735.855469 728.734375 739.988281 732.867188 746.1875 732.867188 C 752.386719 732.867188 756.519531 728.734375 756.519531 722.535156 L 756.519531 700.839844 L 791.644531 700.839844 L 791.644531 722.535156 C 791.644531 728.734375 795.777344 732.867188 801.976562 732.867188 C 808.175781 732.867188 812.308594 728.734375 812.308594 722.535156 L 812.308594 700.839844 L 846.402344 700.839844 L 846.402344 722.535156 C 846.402344 728.734375 850.535156 732.867188 856.734375 732.867188 C 862.933594 732.867188 867.066406 728.734375 867.066406 722.535156 L 867.066406 700.839844 L 901.160156 700.839844 L 901.160156 722.535156 C 901.160156 728.734375 905.292969 732.867188 911.492188 732.867188 C 917.691406 732.867188 921.824219 728.734375 921.824219 722.535156 L 921.824219 700.839844 L 955.917969 700.839844 L 955.917969 722.535156 C 955.917969 728.734375 960.050781 732.867188 966.25 732.867188 C 972.449219 732.867188 976.578125 728.734375 976.578125 722.535156 L 976.578125 700.839844 L 1014.808594 700.839844 L 1008.609375 707.039062 C 1004.476562 711.171875 1004.476562 717.371094 1008.609375 721.503906 C 1012.742188 725.636719 1018.9375 725.636719 1023.070312 721.503906 L 1046.835938 697.742188 C 1050.96875 693.609375 1050.96875 687.410156 1046.835938 683.277344 Z M 667.667969 224.558594 C 673.867188 195.628906 716.226562 196.660156 720.359375 225.589844 L 760.652344 476.644531 C 760.652344 478.710938 761.683594 480.777344 761.683594 482.84375 L 716.226562 564.464844 C 704.859375 584.09375 676.964844 586.160156 663.535156 567.5625 L 610.84375 494.210938 Z M 547.820312 439.453125 L 589.148438 498.34375 C 581.917969 517.972656 563.320312 532.4375 541.625 532.4375 C 525.09375 532.4375 509.59375 543.800781 506.496094 560.332031 C 502.363281 575.828125 487.898438 587.191406 471.367188 587.191406 L 441.40625 587.191406 L 441.40625 439.453125 Z M 547.820312 439.453125 "/></g></g></svg>