<svg xmlns="http://www.w3.org/2000/svg" xmlns:xlink="http://www.w3.org/1999/xlink" width="1920" zoomAndPan="magnify" viewBox="0 0 1440 809.999993" height="1080" preserveAspectRatio="xMidYMid meet" version="1.2"><defs><clipPath id="725ac8c6d7"><path d="M 366.222656 323 L 462 323 L 462 419 L 366.222656 419 Z M 366.222656 323 "/></clipPath><clipPath id="48a5e4150d"><path d="M 366.222656 519 L 462 519 L 462 616 L 366.222656 616 Z M 366.222656 519 "/></clipPath></defs><g id="7192f057e5"><path style=" stroke:none;fill-rule:nonzero;fill:#ffffff;fill-opacity:1;" d="M 958.84375 462.6875 C 959.726562 462.6875 960.605469 462.601562 961.476562 462.429688 C 962.34375 462.253906 963.1875 462 964.007812 461.660156 C 964.828125 461.320312 965.605469 460.90625 966.34375 460.410156 C 967.078125 459.917969 967.761719 459.359375 968.386719 458.734375 C 969.015625 458.105469 969.574219 457.425781 970.066406 456.6875 C 970.558594 455.949219 970.976562 455.171875 971.316406 454.351562 C 971.652344 453.535156 971.910156 452.691406 972.082031 451.820312 C 972.253906 450.953125 972.34375 450.074219 972.34375 449.1875 L 972.34375 126.878906 C 972.34375 125.992188 972.253906 125.117188 972.082031 124.246094 C 971.910156 123.378906 971.652344 122.53125 971.316406 121.714844 C 970.976562 120.894531 970.558594 120.117188 970.066406 119.378906 C 969.574219 118.644531 969.015625 117.960938 968.386719 117.335938 C 967.761719 116.707031 967.078125 116.148438 966.34375 115.65625 C 965.605469 115.164062 964.828125 114.746094 964.007812 114.40625 C 963.1875 114.070312 962.34375 113.8125 961.476562 113.640625 C 960.605469 113.464844 959.726562 113.378906 958.84375 113.378906 L 631.082031 113.378906 C 629.300781 113.40625 627.59375 113.769531 625.957031 114.472656 C 624.320312 115.171875 622.882812 116.160156 621.636719 117.433594 L 502.707031 236.160156 C 501.421875 237.417969 500.429688 238.875 499.726562 240.53125 C 499.027344 242.183594 498.667969 243.910156 498.652344 245.707031 L 498.652344 327.703125 C 498.6875 328.566406 498.800781 329.421875 499 330.261719 C 499.195312 331.101562 499.472656 331.917969 499.824219 332.707031 C 500.179688 333.496094 500.605469 334.242188 501.101562 334.949219 C 501.601562 335.65625 502.160156 336.3125 502.785156 336.910156 C 503.40625 337.507812 504.082031 338.042969 504.808594 338.511719 C 505.53125 338.984375 506.296875 339.378906 507.097656 339.703125 C 507.898438 340.027344 508.726562 340.269531 509.574219 340.433594 C 510.421875 340.597656 511.277344 340.679688 512.144531 340.679688 C 513.007812 340.679688 513.863281 340.597656 514.714844 340.433594 C 515.5625 340.269531 516.386719 340.027344 517.1875 339.703125 C 517.992188 339.378906 518.753906 338.984375 519.480469 338.511719 C 520.207031 338.042969 520.878906 337.507812 521.503906 336.910156 C 522.125 336.3125 522.6875 335.65625 523.183594 334.949219 C 523.679688 334.242188 524.105469 333.496094 524.460938 332.707031 C 524.816406 331.917969 525.089844 331.101562 525.289062 330.261719 C 525.484375 329.421875 525.601562 328.566406 525.632812 327.703125 L 525.632812 251.222656 L 636.554688 140.28125 L 945.363281 140.28125 L 945.363281 449.1875 C 945.363281 450.074219 945.449219 450.949219 945.621094 451.816406 C 945.792969 452.6875 946.050781 453.53125 946.386719 454.347656 C 946.726562 455.167969 947.140625 455.945312 947.632812 456.679688 C 948.125 457.417969 948.683594 458.097656 949.308594 458.726562 C 949.933594 459.351562 950.617188 459.914062 951.351562 460.40625 C 952.085938 460.898438 952.863281 461.3125 953.683594 461.652344 C 954.5 461.992188 955.34375 462.25 956.210938 462.425781 C 957.078125 462.597656 957.957031 462.6875 958.84375 462.6875 Z M 958.84375 462.6875 "/><path style=" stroke:none;fill-rule:nonzero;fill:#ffffff;fill-opacity:1;" d="M 512.171875 537.464844 C 513.058594 537.464844 513.9375 537.378906 514.804688 537.203125 C 515.671875 537.03125 516.515625 536.773438 517.332031 536.433594 C 518.152344 536.09375 518.929688 535.675781 519.664062 535.183594 C 520.398438 534.691406 521.082031 534.132812 521.707031 533.503906 C 522.332031 532.878906 522.890625 532.195312 523.382812 531.460938 C 523.875 530.722656 524.289062 529.945312 524.628906 529.128906 C 524.964844 528.308594 525.222656 527.464844 525.394531 526.597656 C 525.566406 525.730469 525.652344 524.851562 525.652344 523.964844 L 525.652344 414.402344 C 525.621094 413.539062 525.503906 412.6875 525.308594 411.84375 C 525.109375 411.003906 524.835938 410.1875 524.480469 409.398438 C 524.128906 408.609375 523.703125 407.863281 523.203125 407.15625 C 522.707031 406.449219 522.144531 405.796875 521.523438 405.195312 C 520.898438 404.597656 520.226562 404.0625 519.5 403.59375 C 518.773438 403.121094 518.011719 402.726562 517.207031 402.402344 C 516.40625 402.078125 515.582031 401.835938 514.734375 401.671875 C 513.882812 401.507812 513.027344 401.425781 512.164062 401.425781 C 511.300781 401.425781 510.441406 401.507812 509.59375 401.671875 C 508.746094 401.835938 507.921875 402.078125 507.117188 402.402344 C 506.316406 402.726562 505.550781 403.121094 504.828125 403.59375 C 504.101562 404.0625 503.425781 404.597656 502.804688 405.195312 C 502.179688 405.796875 501.621094 406.449219 501.125 407.15625 C 500.625 407.863281 500.199219 408.609375 499.847656 409.398438 C 499.492188 410.1875 499.214844 411.003906 499.019531 411.84375 C 498.820312 412.6875 498.707031 413.539062 498.671875 414.402344 L 498.671875 523.964844 C 498.671875 524.851562 498.761719 525.730469 498.933594 526.601562 C 499.105469 527.46875 499.363281 528.3125 499.699219 529.132812 C 500.039062 529.953125 500.457031 530.730469 500.949219 531.464844 C 501.441406 532.203125 502 532.886719 502.628906 533.511719 C 503.253906 534.140625 503.9375 534.699219 504.671875 535.191406 C 505.410156 535.683594 506.1875 536.097656 507.007812 536.4375 C 507.828125 536.777344 508.671875 537.035156 509.539062 537.207031 C 510.410156 537.378906 511.289062 537.464844 512.171875 537.464844 Z M 512.171875 537.464844 "/><path style=" stroke:none;fill-rule:nonzero;fill:#ffffff;fill-opacity:1;" d="M 512.171875 697.445312 L 958.84375 697.445312 C 959.726562 697.445312 960.605469 697.359375 961.476562 697.183594 C 962.34375 697.011719 963.1875 696.753906 964.007812 696.417969 C 964.828125 696.078125 965.605469 695.660156 966.34375 695.167969 C 967.078125 694.675781 967.761719 694.117188 968.386719 693.488281 C 969.015625 692.863281 969.574219 692.179688 970.066406 691.445312 C 970.558594 690.707031 970.976562 689.929688 971.316406 689.109375 C 971.652344 688.289062 971.910156 687.445312 972.082031 686.578125 C 972.253906 685.707031 972.34375 684.832031 972.34375 683.945312 L 972.34375 555.648438 C 972.378906 554.742188 972.320312 553.839844 972.175781 552.941406 C 972.027344 552.046875 971.792969 551.171875 971.46875 550.324219 C 971.148438 549.476562 970.742188 548.667969 970.253906 547.898438 C 969.769531 547.132812 969.210938 546.421875 968.582031 545.765625 C 967.953125 545.113281 967.261719 544.527344 966.515625 544.011719 C 965.765625 543.496094 964.976562 543.058594 964.140625 542.703125 C 963.304688 542.347656 962.441406 542.078125 961.550781 541.898438 C 960.660156 541.714844 959.761719 541.625 958.851562 541.625 C 957.945312 541.625 957.042969 541.714844 956.152344 541.898438 C 955.265625 542.078125 954.402344 542.347656 953.566406 542.703125 C 952.730469 543.058594 951.9375 543.496094 951.1875 544.011719 C 950.441406 544.527344 949.753906 545.113281 949.121094 545.765625 C 948.492188 546.421875 947.933594 547.132812 947.449219 547.898438 C 946.960938 548.667969 946.558594 549.476562 946.234375 550.324219 C 945.910156 551.171875 945.675781 552.046875 945.527344 552.941406 C 945.382812 553.839844 945.328125 554.742188 945.363281 555.648438 L 945.363281 670.464844 L 525.753906 670.464844 L 525.753906 610.683594 C 525.722656 609.820312 525.605469 608.96875 525.410156 608.125 C 525.210938 607.285156 524.9375 606.46875 524.582031 605.679688 C 524.226562 604.890625 523.800781 604.144531 523.304688 603.4375 C 522.808594 602.730469 522.246094 602.078125 521.625 601.480469 C 521 600.878906 520.328125 600.34375 519.601562 599.875 C 518.875 599.40625 518.113281 599.007812 517.308594 598.6875 C 516.507812 598.363281 515.683594 598.117188 514.835938 597.953125 C 513.984375 597.789062 513.128906 597.707031 512.265625 597.707031 C 511.402344 597.707031 510.542969 597.789062 509.695312 597.953125 C 508.847656 598.117188 508.019531 598.363281 507.21875 598.6875 C 506.417969 599.007812 505.652344 599.40625 504.929688 599.875 C 504.203125 600.34375 503.527344 600.878906 502.90625 601.480469 C 502.28125 602.078125 501.722656 602.730469 501.226562 603.4375 C 500.726562 604.144531 500.300781 604.890625 499.949219 605.679688 C 499.59375 606.46875 499.316406 607.285156 499.121094 608.125 C 498.921875 608.96875 498.808594 609.820312 498.773438 610.683594 L 498.773438 683.945312 C 498.773438 684.824219 498.859375 685.699219 499.03125 686.566406 C 499.203125 687.429688 499.457031 688.269531 499.792969 689.085938 C 500.128906 689.902344 500.539062 690.675781 501.027344 691.414062 C 501.515625 692.148438 502.070312 692.828125 502.691406 693.453125 C 503.3125 694.082031 503.992188 694.640625 504.722656 695.132812 C 505.453125 695.628906 506.226562 696.046875 507.039062 696.386719 C 507.851562 696.730469 508.691406 696.988281 509.554688 697.167969 C 510.417969 697.34375 511.292969 697.4375 512.171875 697.445312 Z M 512.171875 697.445312 "/><path style=" stroke:none;fill-rule:nonzero;fill:#ffffff;fill-opacity:1;" d="M 499.789062 250.878906 C 499.277344 249.644531 498.953125 248.363281 498.824219 247.035156 C 498.691406 245.707031 498.753906 244.386719 499.015625 243.074219 C 499.273438 241.765625 499.71875 240.523438 500.347656 239.34375 C 500.976562 238.167969 501.761719 237.105469 502.707031 236.160156 L 621.636719 117.433594 C 622.582031 116.492188 623.640625 115.710938 624.816406 115.082031 C 625.996094 114.457031 627.238281 114.015625 628.546875 113.753906 C 629.851562 113.496094 631.171875 113.433594 632.496094 113.566406 C 633.824219 113.695312 635.101562 114.019531 636.335938 114.527344 C 637.566406 115.039062 638.695312 115.71875 639.726562 116.5625 C 640.757812 117.410156 641.644531 118.386719 642.386719 119.492188 C 643.125 120.601562 643.691406 121.792969 644.078125 123.070312 C 644.46875 124.34375 644.664062 125.648438 644.664062 126.980469 L 644.664062 245.707031 C 644.664062 246.59375 644.578125 247.472656 644.40625 248.339844 C 644.234375 249.207031 643.976562 250.050781 643.636719 250.871094 C 643.300781 251.6875 642.882812 252.464844 642.394531 253.203125 C 641.902344 253.9375 641.34375 254.621094 640.71875 255.246094 C 640.089844 255.875 639.410156 256.433594 638.675781 256.925781 C 637.9375 257.417969 637.160156 257.835938 636.34375 258.175781 C 635.527344 258.515625 634.683594 258.773438 633.816406 258.945312 C 632.945312 259.121094 632.070312 259.207031 631.183594 259.207031 L 512.171875 259.207031 C 510.847656 259.203125 509.546875 259.003906 508.277344 258.613281 C 507.007812 258.222656 505.824219 257.65625 504.722656 256.914062 C 503.621094 256.171875 502.648438 255.289062 501.808594 254.261719 C 500.96875 253.230469 500.296875 252.105469 499.789062 250.878906 Z M 617.582031 159.433594 L 544.808594 232.207031 L 617.582031 232.207031 Z M 617.582031 159.433594 "/><path style=" stroke:none;fill-rule:nonzero;fill:#ffffff;fill-opacity:1;" d="M 685.125 277.574219 L 892.007812 277.574219 C 892.894531 277.570312 893.769531 277.476562 894.632812 277.300781 C 895.5 277.125 896.339844 276.863281 897.15625 276.519531 C 897.96875 276.179688 898.742188 275.761719 899.476562 275.265625 C 900.210938 274.773438 900.886719 274.210938 901.511719 273.585938 C 902.132812 272.957031 902.6875 272.273438 903.175781 271.539062 C 903.664062 270.800781 904.078125 270.023438 904.414062 269.207031 C 904.75 268.390625 905.003906 267.546875 905.175781 266.679688 C 905.34375 265.8125 905.429688 264.9375 905.429688 264.054688 L 905.429688 201.09375 C 905.429688 200.207031 905.339844 199.328125 905.167969 198.457031 C 904.996094 197.589844 904.738281 196.746094 904.402344 195.925781 C 904.0625 195.105469 903.644531 194.328125 903.152344 193.589844 C 902.660156 192.855469 902.101562 192.171875 901.472656 191.546875 C 900.847656 190.917969 900.164062 190.359375 899.429688 189.867188 C 898.691406 189.375 897.914062 188.957031 897.09375 188.621094 C 896.273438 188.28125 895.429688 188.023438 894.5625 187.851562 C 893.691406 187.679688 892.8125 187.589844 891.929688 187.589844 L 685.125 187.589844 C 684.21875 187.554688 683.316406 187.613281 682.417969 187.757812 C 681.523438 187.90625 680.648438 188.140625 679.800781 188.464844 C 678.949219 188.789062 678.144531 189.191406 677.375 189.679688 C 676.609375 190.164062 675.898438 190.722656 675.242188 191.351562 C 674.585938 191.980469 674.003906 192.671875 673.488281 193.417969 C 672.972656 194.167969 672.535156 194.960938 672.179688 195.796875 C 671.824219 196.628906 671.554688 197.492188 671.375 198.382812 C 671.191406 199.273438 671.101562 200.171875 671.101562 201.082031 C 671.101562 201.992188 671.191406 202.890625 671.375 203.78125 C 671.554688 204.671875 671.824219 205.53125 672.179688 206.367188 C 672.535156 207.203125 672.972656 207.996094 673.488281 208.746094 C 674.003906 209.492188 674.585938 210.179688 675.242188 210.8125 C 675.898438 211.441406 676.609375 212 677.375 212.484375 C 678.144531 212.972656 678.949219 213.375 679.800781 213.699219 C 680.648438 214.023438 681.523438 214.257812 682.417969 214.40625 C 683.316406 214.550781 684.21875 214.605469 685.125 214.570312 L 878.527344 214.570312 L 878.527344 250.554688 L 685.125 250.554688 C 684.21875 250.519531 683.316406 250.574219 682.417969 250.71875 C 681.523438 250.867188 680.648438 251.101562 679.800781 251.425781 C 678.949219 251.75 678.140625 252.152344 677.375 252.640625 C 676.609375 253.125 675.898438 253.683594 675.242188 254.3125 C 674.585938 254.945312 674.003906 255.632812 673.488281 256.378906 C 672.972656 257.128906 672.535156 257.921875 672.179688 258.757812 C 671.824219 259.59375 671.554688 260.457031 671.375 261.34375 C 671.191406 262.234375 671.101562 263.132812 671.101562 264.042969 C 671.101562 264.953125 671.191406 265.851562 671.375 266.742188 C 671.554688 267.632812 671.824219 268.496094 672.179688 269.332031 C 672.535156 270.167969 672.972656 270.957031 673.488281 271.707031 C 674.003906 272.453125 674.585938 273.144531 675.242188 273.773438 C 675.898438 274.402344 676.609375 274.960938 677.375 275.445312 C 678.140625 275.933594 678.949219 276.335938 679.800781 276.660156 C 680.648438 276.984375 681.523438 277.21875 682.417969 277.367188 C 683.316406 277.511719 684.21875 277.570312 685.125 277.535156 Z M 685.125 277.574219 "/><path style=" stroke:none;fill-rule:nonzero;fill:#ffffff;fill-opacity:1;" d="M 579.066406 355.128906 L 892.007812 355.128906 C 892.917969 355.164062 893.820312 355.109375 894.714844 354.960938 C 895.613281 354.816406 896.484375 354.582031 897.332031 354.257812 C 898.183594 353.933594 898.992188 353.53125 899.757812 353.042969 C 900.527344 352.558594 901.238281 352 901.890625 351.371094 C 902.546875 350.738281 903.132812 350.050781 903.648438 349.300781 C 904.164062 348.554688 904.597656 347.761719 904.953125 346.925781 C 905.308594 346.089844 905.578125 345.226562 905.761719 344.335938 C 905.941406 343.449219 906.03125 342.546875 906.03125 341.640625 C 906.03125 340.730469 905.941406 339.832031 905.761719 338.941406 C 905.578125 338.050781 905.308594 337.1875 904.953125 336.351562 C 904.597656 335.515625 904.164062 334.726562 903.648438 333.976562 C 903.132812 333.230469 902.546875 332.539062 901.890625 331.910156 C 901.238281 331.28125 900.527344 330.722656 899.757812 330.238281 C 898.992188 329.75 898.183594 329.34375 897.332031 329.023438 C 896.484375 328.699219 895.613281 328.464844 894.714844 328.316406 C 893.820312 328.171875 892.917969 328.113281 892.007812 328.148438 L 579.066406 328.148438 C 578.160156 328.113281 577.257812 328.171875 576.359375 328.316406 C 575.464844 328.464844 574.59375 328.699219 573.742188 329.023438 C 572.894531 329.34375 572.085938 329.75 571.316406 330.238281 C 570.550781 330.722656 569.839844 331.28125 569.183594 331.910156 C 568.53125 332.539062 567.945312 333.230469 567.429688 333.976562 C 566.914062 334.726562 566.476562 335.515625 566.121094 336.351562 C 565.765625 337.1875 565.5 338.050781 565.316406 338.941406 C 565.136719 339.832031 565.042969 340.730469 565.042969 341.640625 C 565.042969 342.546875 565.136719 343.449219 565.316406 344.335938 C 565.5 345.226562 565.765625 346.089844 566.121094 346.925781 C 566.476562 347.761719 566.914062 348.554688 567.429688 349.300781 C 567.945312 350.050781 568.53125 350.738281 569.183594 351.371094 C 569.839844 352 570.550781 352.558594 571.316406 353.042969 C 572.085938 353.53125 572.894531 353.933594 573.742188 354.257812 C 574.59375 354.582031 575.464844 354.816406 576.359375 354.960938 C 577.257812 355.109375 578.160156 355.164062 579.066406 355.128906 Z M 579.066406 355.128906 "/><path style=" stroke:none;fill-rule:nonzero;fill:#ffffff;fill-opacity:1;" d="M 579.066406 418.902344 L 892.007812 418.902344 C 892.917969 418.9375 893.820312 418.882812 894.714844 418.734375 C 895.613281 418.585938 896.484375 418.351562 897.332031 418.03125 C 898.183594 417.707031 898.992188 417.300781 899.757812 416.816406 C 900.527344 416.328125 901.238281 415.769531 901.890625 415.140625 C 902.546875 414.511719 903.132812 413.824219 903.648438 413.074219 C 904.164062 412.328125 904.597656 411.535156 904.953125 410.699219 C 905.308594 409.863281 905.578125 409 905.761719 408.109375 C 905.941406 407.21875 906.03125 406.320312 906.03125 405.410156 C 906.03125 404.503906 905.941406 403.605469 905.761719 402.714844 C 905.578125 401.824219 905.308594 400.960938 904.953125 400.125 C 904.597656 399.289062 904.164062 398.496094 903.648438 397.75 C 903.132812 397 902.546875 396.3125 901.890625 395.683594 C 901.238281 395.054688 900.527344 394.496094 899.757812 394.007812 C 898.992188 393.523438 898.183594 393.117188 897.332031 392.792969 C 896.484375 392.472656 895.613281 392.234375 894.714844 392.089844 C 893.820312 391.941406 892.917969 391.886719 892.007812 391.921875 L 579.066406 391.921875 C 578.160156 391.886719 577.257812 391.941406 576.359375 392.089844 C 575.464844 392.234375 574.589844 392.472656 573.742188 392.792969 C 572.894531 393.117188 572.085938 393.523438 571.316406 394.007812 C 570.550781 394.496094 569.839844 395.054688 569.183594 395.683594 C 568.53125 396.3125 567.945312 397 567.429688 397.75 C 566.914062 398.496094 566.476562 399.289062 566.121094 400.125 C 565.765625 400.960938 565.496094 401.824219 565.316406 402.714844 C 565.132812 403.605469 565.042969 404.503906 565.042969 405.410156 C 565.042969 406.320312 565.132812 407.21875 565.316406 408.109375 C 565.496094 409 565.765625 409.863281 566.121094 410.699219 C 566.476562 411.535156 566.914062 412.328125 567.429688 413.074219 C 567.945312 413.824219 568.53125 414.511719 569.183594 415.140625 C 569.839844 415.769531 570.550781 416.328125 571.316406 416.816406 C 572.085938 417.300781 572.894531 417.707031 573.742188 418.03125 C 574.589844 418.351562 575.464844 418.585938 576.359375 418.734375 C 577.257812 418.882812 578.160156 418.9375 579.066406 418.902344 Z M 579.066406 418.902344 "/><path style=" stroke:none;fill-rule:nonzero;fill:#ffffff;fill-opacity:1;" d="M 579.066406 482.675781 L 847.046875 482.675781 C 847.910156 482.640625 848.765625 482.527344 849.605469 482.328125 C 850.449219 482.132812 851.261719 481.855469 852.050781 481.5 C 852.839844 481.148438 853.589844 480.722656 854.296875 480.222656 C 855.003906 479.726562 855.65625 479.167969 856.253906 478.542969 C 856.855469 477.921875 857.386719 477.246094 857.859375 476.519531 C 858.328125 475.796875 858.722656 475.03125 859.046875 474.230469 C 859.371094 473.425781 859.613281 472.601562 859.777344 471.753906 C 859.941406 470.90625 860.023438 470.046875 860.023438 469.183594 C 860.023438 468.320312 859.941406 467.464844 859.777344 466.613281 C 859.613281 465.765625 859.371094 464.941406 859.046875 464.140625 C 858.722656 463.335938 858.328125 462.574219 857.859375 461.847656 C 857.386719 461.121094 856.855469 460.449219 856.253906 459.824219 C 855.65625 459.203125 855.003906 458.640625 854.296875 458.144531 C 853.589844 457.648438 852.839844 457.222656 852.050781 456.867188 C 851.261719 456.511719 850.449219 456.238281 849.605469 456.039062 C 848.765625 455.84375 847.910156 455.726562 847.046875 455.695312 L 579.066406 455.695312 C 578.160156 455.660156 577.257812 455.714844 576.359375 455.863281 C 575.464844 456.007812 574.589844 456.242188 573.742188 456.566406 C 572.894531 456.890625 572.085938 457.292969 571.316406 457.78125 C 570.550781 458.265625 569.839844 458.824219 569.183594 459.453125 C 568.53125 460.085938 567.945312 460.773438 567.429688 461.519531 C 566.914062 462.269531 566.476562 463.0625 566.121094 463.898438 C 565.765625 464.734375 565.496094 465.597656 565.316406 466.484375 C 565.132812 467.375 565.042969 468.277344 565.042969 469.183594 C 565.042969 470.09375 565.132812 470.992188 565.316406 471.882812 C 565.496094 472.773438 565.765625 473.636719 566.121094 474.472656 C 566.476562 475.308594 566.914062 476.097656 567.429688 476.847656 C 567.945312 477.59375 568.53125 478.285156 569.183594 478.914062 C 569.839844 479.542969 570.550781 480.101562 571.316406 480.585938 C 572.085938 481.074219 572.894531 481.480469 573.742188 481.800781 C 574.589844 482.125 575.464844 482.359375 576.359375 482.507812 C 577.257812 482.652344 578.160156 482.710938 579.066406 482.675781 Z M 579.066406 482.675781 "/><path style=" stroke:none;fill-rule:nonzero;fill:#ffffff;fill-opacity:1;" d="M 579.066406 546.464844 L 847.046875 546.464844 C 847.933594 546.464844 848.8125 546.378906 849.683594 546.207031 C 850.550781 546.035156 851.394531 545.777344 852.214844 545.4375 C 853.035156 545.101562 853.8125 544.683594 854.546875 544.191406 C 855.285156 543.699219 855.96875 543.140625 856.59375 542.511719 C 857.222656 541.886719 857.78125 541.203125 858.273438 540.464844 C 858.765625 539.730469 859.179688 538.953125 859.519531 538.132812 C 859.859375 537.3125 860.117188 536.46875 860.289062 535.601562 C 860.460938 534.730469 860.546875 533.851562 860.546875 532.964844 C 860.546875 532.078125 860.460938 531.203125 860.289062 530.332031 C 860.117188 529.464844 859.859375 528.617188 859.519531 527.800781 C 859.179688 526.980469 858.765625 526.203125 858.273438 525.464844 C 857.78125 524.730469 857.222656 524.046875 856.59375 523.421875 C 855.96875 522.792969 855.285156 522.234375 854.546875 521.742188 C 853.8125 521.25 853.035156 520.832031 852.214844 520.492188 C 851.394531 520.15625 850.550781 519.898438 849.683594 519.726562 C 848.8125 519.550781 847.933594 519.464844 847.046875 519.464844 L 579.066406 519.464844 C 578.179688 519.464844 577.304688 519.550781 576.433594 519.726562 C 575.5625 519.898438 574.71875 520.15625 573.902344 520.492188 C 573.082031 520.832031 572.304688 521.25 571.566406 521.742188 C 570.828125 522.234375 570.148438 522.792969 569.519531 523.421875 C 568.894531 524.046875 568.335938 524.730469 567.84375 525.464844 C 567.351562 526.203125 566.933594 526.980469 566.59375 527.800781 C 566.253906 528.617188 566 529.464844 565.828125 530.332031 C 565.652344 531.203125 565.566406 532.078125 565.566406 532.964844 C 565.566406 533.851562 565.652344 534.730469 565.828125 535.601562 C 566 536.46875 566.253906 537.3125 566.59375 538.132812 C 566.933594 538.953125 567.351562 539.730469 567.84375 540.464844 C 568.335938 541.203125 568.894531 541.886719 569.519531 542.511719 C 570.148438 543.140625 570.828125 543.699219 571.566406 544.191406 C 572.304688 544.683594 573.082031 545.101562 573.902344 545.4375 C 574.71875 545.777344 575.5625 546.035156 576.433594 546.207031 C 577.304688 546.378906 578.179688 546.464844 579.066406 546.464844 Z M 579.066406 546.464844 "/><path style=" stroke:none;fill-rule:nonzero;fill:#ffffff;fill-opacity:1;" d="M 579.066406 610.238281 L 892.007812 610.238281 C 892.894531 610.238281 893.773438 610.152344 894.644531 609.980469 C 895.511719 609.804688 896.355469 609.550781 897.175781 609.210938 C 897.996094 608.871094 898.773438 608.457031 899.507812 607.964844 C 900.246094 607.472656 900.929688 606.910156 901.554688 606.285156 C 902.183594 605.65625 902.742188 604.976562 903.234375 604.238281 C 903.726562 603.5 904.140625 602.722656 904.480469 601.90625 C 904.820312 601.085938 905.078125 600.242188 905.25 599.371094 C 905.421875 598.503906 905.507812 597.625 905.507812 596.738281 C 905.507812 595.851562 905.421875 594.972656 905.25 594.105469 C 905.078125 593.234375 904.820312 592.390625 904.480469 591.570312 C 904.140625 590.753906 903.726562 589.976562 903.234375 589.238281 C 902.742188 588.5 902.183594 587.820312 901.554688 587.191406 C 900.929688 586.566406 900.246094 586.003906 899.507812 585.511719 C 898.773438 585.019531 897.996094 584.605469 897.175781 584.265625 C 896.355469 583.925781 895.511719 583.671875 894.644531 583.496094 C 893.773438 583.324219 892.894531 583.238281 892.007812 583.238281 L 579.066406 583.238281 C 578.179688 583.238281 577.304688 583.324219 576.433594 583.496094 C 575.5625 583.671875 574.71875 583.925781 573.902344 584.265625 C 573.082031 584.605469 572.304688 585.019531 571.566406 585.511719 C 570.828125 586.003906 570.148438 586.566406 569.519531 587.191406 C 568.894531 587.820312 568.335938 588.5 567.84375 589.238281 C 567.351562 589.976562 566.933594 590.753906 566.59375 591.570312 C 566.253906 592.390625 566 593.234375 565.828125 594.105469 C 565.652344 594.972656 565.566406 595.851562 565.566406 596.738281 C 565.566406 597.625 565.652344 598.503906 565.828125 599.371094 C 566 600.242188 566.253906 601.085938 566.59375 601.90625 C 566.933594 602.722656 567.351562 603.5 567.84375 604.238281 C 568.335938 604.976562 568.894531 605.65625 569.519531 606.285156 C 570.148438 606.910156 570.828125 607.472656 571.566406 607.964844 C 572.304688 608.457031 573.082031 608.871094 573.902344 609.210938 C 574.71875 609.550781 575.5625 609.804688 576.433594 609.980469 C 577.304688 610.152344 578.179688 610.238281 579.066406 610.238281 Z M 579.066406 610.238281 "/><path style=" stroke:none;fill-rule:nonzero;fill:#ffffff;fill-opacity:1;" d="M 448.441406 384.542969 L 553.953125 384.542969 C 554.816406 384.507812 555.667969 384.394531 556.511719 384.195312 C 557.351562 384 558.167969 383.722656 558.957031 383.371094 C 559.746094 383.015625 560.492188 382.589844 561.199219 382.09375 C 561.90625 381.597656 562.558594 381.035156 563.160156 380.414062 C 563.757812 379.789062 564.292969 379.113281 564.761719 378.390625 C 565.230469 377.664062 565.628906 376.898438 565.949219 376.097656 C 566.273438 375.296875 566.519531 374.472656 566.683594 373.621094 C 566.847656 372.773438 566.929688 371.917969 566.929688 371.054688 C 566.929688 370.1875 566.847656 369.332031 566.683594 368.484375 C 566.519531 367.632812 566.273438 366.808594 565.949219 366.007812 C 565.628906 365.207031 565.230469 364.441406 564.761719 363.714844 C 564.292969 362.992188 563.757812 362.316406 563.160156 361.695312 C 562.558594 361.070312 561.90625 360.511719 561.199219 360.011719 C 560.492188 359.515625 559.746094 359.089844 558.957031 358.734375 C 558.167969 358.382812 557.351562 358.105469 556.511719 357.910156 C 555.667969 357.710938 554.816406 357.597656 553.953125 357.5625 L 448.542969 357.5625 C 447.636719 357.527344 446.734375 357.582031 445.835938 357.730469 C 444.941406 357.878906 444.066406 358.113281 443.21875 358.433594 C 442.371094 358.757812 441.5625 359.164062 440.792969 359.648438 C 440.027344 360.136719 439.316406 360.695312 438.660156 361.324219 C 438.007812 361.953125 437.421875 362.640625 436.90625 363.390625 C 436.390625 364.136719 435.953125 364.929688 435.597656 365.765625 C 435.242188 366.601562 434.972656 367.464844 434.792969 368.355469 C 434.609375 369.246094 434.519531 370.144531 434.519531 371.054688 C 434.519531 371.960938 434.609375 372.859375 434.792969 373.75 C 434.972656 374.640625 435.242188 375.503906 435.597656 376.339844 C 435.953125 377.175781 436.390625 377.96875 436.90625 378.714844 C 437.421875 379.464844 438.007812 380.152344 438.660156 380.78125 C 439.316406 381.414062 440.027344 381.96875 440.792969 382.457031 C 441.5625 382.941406 442.371094 383.347656 443.21875 383.671875 C 444.066406 383.992188 444.941406 384.230469 445.835938 384.375 C 446.734375 384.523438 447.636719 384.578125 448.542969 384.542969 Z M 448.441406 384.542969 "/><g clip-rule="nonzero" clip-path="url(#725ac8c6d7)"><path style=" stroke:none;fill-rule:nonzero;fill:#ffffff;fill-opacity:1;" d="M 366.222656 371.042969 C 366.222656 369.476562 366.300781 367.910156 366.453125 366.351562 C 366.609375 364.792969 366.835938 363.242188 367.144531 361.707031 C 367.449219 360.167969 367.828125 358.648438 368.285156 357.148438 C 368.738281 355.648438 369.265625 354.175781 369.867188 352.726562 C 370.464844 351.28125 371.136719 349.863281 371.875 348.480469 C 372.613281 347.101562 373.417969 345.757812 374.289062 344.453125 C 375.160156 343.148438 376.09375 341.894531 377.085938 340.679688 C 378.082031 339.46875 379.132812 338.308594 380.242188 337.199219 C 381.351562 336.09375 382.507812 335.042969 383.722656 334.046875 C 384.933594 333.050781 386.191406 332.121094 387.492188 331.25 C 388.796875 330.378906 390.140625 329.574219 391.523438 328.835938 C 392.90625 328.09375 394.320312 327.425781 395.769531 326.828125 C 397.214844 326.226562 398.691406 325.699219 400.191406 325.246094 C 401.691406 324.789062 403.207031 324.410156 404.746094 324.101562 C 406.285156 323.796875 407.832031 323.566406 409.390625 323.414062 C 410.953125 323.261719 412.515625 323.183594 414.082031 323.183594 C 415.652344 323.183594 417.214844 323.261719 418.773438 323.414062 C 420.335938 323.566406 421.882812 323.796875 423.421875 324.101562 C 424.957031 324.410156 426.476562 324.789062 427.976562 325.246094 C 429.476562 325.699219 430.949219 326.226562 432.398438 326.828125 C 433.847656 327.425781 435.261719 328.09375 436.644531 328.835938 C 438.027344 329.574219 439.367188 330.378906 440.671875 331.25 C 441.976562 332.121094 443.234375 333.050781 444.445312 334.046875 C 445.65625 335.042969 446.816406 336.09375 447.925781 337.199219 C 449.03125 338.308594 450.085938 339.46875 451.078125 340.679688 C 452.074219 341.894531 453.007812 343.148438 453.875 344.453125 C 454.746094 345.757812 455.550781 347.101562 456.292969 348.480469 C 457.03125 349.863281 457.699219 351.28125 458.300781 352.726562 C 458.898438 354.175781 459.425781 355.648438 459.882812 357.148438 C 460.335938 358.648438 460.71875 360.167969 461.023438 361.707031 C 461.328125 363.242188 461.558594 364.792969 461.710938 366.351562 C 461.867188 367.910156 461.941406 369.476562 461.941406 371.042969 C 461.941406 372.609375 461.867188 374.175781 461.710938 375.734375 C 461.558594 377.292969 461.328125 378.84375 461.023438 380.378906 C 460.71875 381.917969 460.335938 383.4375 459.882812 384.9375 C 459.425781 386.4375 458.898438 387.910156 458.300781 389.359375 C 457.699219 390.804688 457.03125 392.222656 456.292969 393.605469 C 455.550781 394.984375 454.746094 396.328125 453.875 397.632812 C 453.007812 398.933594 452.074219 400.191406 451.078125 401.40625 C 450.085938 402.617188 449.03125 403.777344 447.925781 404.882812 C 446.816406 405.992188 445.65625 407.042969 444.445312 408.039062 C 443.234375 409.03125 441.976562 409.964844 440.671875 410.835938 C 439.367188 411.707031 438.027344 412.511719 436.644531 413.25 C 435.261719 413.988281 433.847656 414.660156 432.398438 415.257812 C 430.949219 415.859375 429.476562 416.386719 427.976562 416.839844 C 426.476562 417.296875 424.957031 417.675781 423.421875 417.984375 C 421.882812 418.289062 420.335938 418.519531 418.773438 418.671875 C 417.214844 418.824219 415.652344 418.902344 414.082031 418.902344 C 412.515625 418.902344 410.953125 418.824219 409.394531 418.667969 C 407.832031 418.511719 406.285156 418.28125 404.75 417.976562 C 403.210938 417.667969 401.695312 417.289062 400.195312 416.832031 C 398.695312 416.375 397.222656 415.847656 395.773438 415.25 C 394.328125 414.648438 392.910156 413.976562 391.53125 413.238281 C 390.148438 412.5 388.804688 411.695312 387.503906 410.824219 C 386.199219 409.953125 384.945312 409.019531 383.730469 408.027344 C 382.519531 407.03125 381.359375 405.980469 380.253906 404.871094 C 379.144531 403.765625 378.09375 402.605469 377.097656 401.394531 C 376.105469 400.183594 375.171875 398.925781 374.300781 397.621094 C 373.429688 396.320312 372.625 394.976562 371.886719 393.59375 C 371.148438 392.214844 370.476562 390.800781 369.878906 389.351562 C 369.277344 387.902344 368.75 386.429688 368.292969 384.929688 C 367.835938 383.433594 367.457031 381.914062 367.148438 380.378906 C 366.84375 378.839844 366.613281 377.292969 366.457031 375.734375 C 366.304688 374.171875 366.226562 372.609375 366.222656 371.042969 Z M 393.203125 371.042969 C 393.203125 371.726562 393.234375 372.410156 393.300781 373.089844 C 393.367188 373.769531 393.46875 374.445312 393.601562 375.117188 C 393.734375 375.789062 393.898438 376.449219 394.097656 377.105469 C 394.296875 377.761719 394.523438 378.402344 394.785156 379.035156 C 395.046875 379.667969 395.339844 380.285156 395.660156 380.890625 C 395.984375 381.492188 396.332031 382.078125 396.714844 382.648438 C 397.09375 383.21875 397.5 383.765625 397.933594 384.296875 C 398.367188 384.824219 398.824219 385.332031 399.308594 385.816406 C 399.789062 386.300781 400.296875 386.757812 400.824219 387.191406 C 401.351562 387.625 401.902344 388.035156 402.46875 388.414062 C 403.039062 388.792969 403.625 389.148438 404.226562 389.46875 C 404.828125 389.792969 405.445312 390.085938 406.078125 390.347656 C 406.710938 390.609375 407.355469 390.839844 408.007812 391.039062 C 408.664062 391.238281 409.324219 391.402344 409.996094 391.539062 C 410.667969 391.671875 411.34375 391.773438 412.023438 391.839844 C 412.703125 391.90625 413.386719 391.941406 414.070312 391.941406 C 414.753906 391.941406 415.4375 391.910156 416.117188 391.84375 C 416.796875 391.777344 417.472656 391.675781 418.144531 391.542969 C 418.816406 391.410156 419.476562 391.246094 420.132812 391.046875 C 420.785156 390.847656 421.429688 390.617188 422.0625 390.355469 C 422.695312 390.097656 423.3125 389.804688 423.914062 389.480469 C 424.519531 389.160156 425.105469 388.808594 425.671875 388.429688 C 426.242188 388.050781 426.792969 387.644531 427.320312 387.210938 C 427.847656 386.777344 428.355469 386.316406 428.839844 385.832031 C 429.324219 385.351562 429.78125 384.84375 430.214844 384.316406 C 430.652344 383.789062 431.058594 383.238281 431.4375 382.671875 C 431.816406 382.101562 432.167969 381.515625 432.492188 380.914062 C 432.816406 380.308594 433.109375 379.691406 433.371094 379.0625 C 433.632812 378.429688 433.863281 377.785156 434.0625 377.132812 C 434.257812 376.476562 434.425781 375.816406 434.558594 375.144531 C 434.691406 374.472656 434.792969 373.796875 434.859375 373.117188 C 434.929688 372.4375 434.960938 371.753906 434.960938 371.070312 C 434.960938 370.386719 434.929688 369.703125 434.863281 369.023438 C 434.796875 368.34375 434.695312 367.667969 434.5625 366.996094 C 434.429688 366.324219 434.261719 365.660156 434.066406 365.007812 C 433.867188 364.351562 433.636719 363.710938 433.375 363.078125 C 433.113281 362.445312 432.820312 361.828125 432.5 361.226562 C 432.175781 360.621094 431.824219 360.035156 431.445312 359.46875 C 431.066406 358.898438 430.660156 358.347656 430.226562 357.820312 C 429.792969 357.292969 429.332031 356.785156 428.847656 356.300781 C 428.367188 355.816406 427.859375 355.359375 427.332031 354.925781 C 426.800781 354.492188 426.253906 354.085938 425.683594 353.703125 C 425.117188 353.324219 424.53125 352.972656 423.925781 352.652344 C 423.324219 352.328125 422.707031 352.035156 422.074219 351.773438 C 421.441406 351.511719 420.800781 351.28125 420.144531 351.082031 C 419.492188 350.886719 418.828125 350.71875 418.15625 350.585938 C 417.488281 350.453125 416.8125 350.351562 416.128906 350.285156 C 415.449219 350.21875 414.765625 350.183594 414.082031 350.183594 C 413.398438 350.183594 412.71875 350.21875 412.039062 350.285156 C 411.359375 350.355469 410.683594 350.453125 410.011719 350.589844 C 409.34375 350.722656 408.683594 350.886719 408.027344 351.085938 C 407.375 351.285156 406.730469 351.515625 406.101562 351.777344 C 405.46875 352.039062 404.851562 352.332031 404.25 352.652344 C 403.648438 352.972656 403.0625 353.324219 402.496094 353.703125 C 401.925781 354.085938 401.378906 354.492188 400.851562 354.925781 C 400.320312 355.355469 399.816406 355.816406 399.332031 356.296875 C 398.847656 356.78125 398.390625 357.285156 397.957031 357.8125 C 397.523438 358.34375 397.117188 358.890625 396.734375 359.457031 C 396.355469 360.023438 396.003906 360.609375 395.683594 361.210938 C 395.359375 361.816406 395.066406 362.429688 394.804688 363.0625 C 394.542969 363.691406 394.3125 364.335938 394.113281 364.988281 C 393.914062 365.640625 393.746094 366.304688 393.613281 366.972656 C 393.476562 367.644531 393.375 368.320312 393.308594 369 C 393.238281 369.679688 393.207031 370.359375 393.203125 371.042969 Z M 393.203125 371.042969 "/></g><path style=" stroke:none;fill-rule:nonzero;fill:#ffffff;fill-opacity:1;" d="M 448.441406 580.804688 L 553.953125 580.804688 C 554.816406 580.773438 555.667969 580.65625 556.511719 580.460938 C 557.351562 580.261719 558.167969 579.988281 558.957031 579.632812 C 559.742188 579.277344 560.492188 578.851562 561.199219 578.355469 C 561.90625 577.859375 562.558594 577.296875 563.15625 576.675781 C 563.757812 576.050781 564.292969 575.378906 564.761719 574.652344 C 565.230469 573.925781 565.628906 573.164062 565.949219 572.359375 C 566.273438 571.558594 566.519531 570.734375 566.683594 569.886719 C 566.847656 569.035156 566.929688 568.179688 566.929688 567.316406 C 566.929688 566.449219 566.847656 565.59375 566.683594 564.746094 C 566.519531 563.898438 566.273438 563.070312 565.949219 562.269531 C 565.628906 561.46875 565.230469 560.703125 564.761719 559.980469 C 564.292969 559.253906 563.757812 558.578125 563.15625 557.957031 C 562.558594 557.332031 561.90625 556.773438 561.199219 556.273438 C 560.492188 555.777344 559.746094 555.351562 558.957031 555 C 558.167969 554.644531 557.351562 554.367188 556.511719 554.171875 C 555.667969 553.972656 554.816406 553.859375 553.953125 553.824219 L 448.542969 553.824219 C 447.636719 553.789062 446.734375 553.84375 445.835938 553.992188 C 444.941406 554.140625 444.066406 554.375 443.21875 554.699219 C 442.371094 555.019531 441.5625 555.425781 440.792969 555.910156 C 440.027344 556.398438 439.316406 556.957031 438.660156 557.585938 C 438.007812 558.214844 437.421875 558.90625 436.90625 559.652344 C 436.390625 560.402344 435.953125 561.191406 435.597656 562.027344 C 435.242188 562.863281 434.972656 563.726562 434.792969 564.617188 C 434.609375 565.507812 434.519531 566.40625 434.519531 567.316406 C 434.519531 568.222656 434.609375 569.125 434.792969 570.011719 C 434.972656 570.902344 435.242188 571.765625 435.597656 572.601562 C 435.953125 573.4375 436.390625 574.230469 436.90625 574.976562 C 437.421875 575.726562 438.007812 576.414062 438.660156 577.042969 C 439.316406 577.675781 440.027344 578.234375 440.792969 578.71875 C 441.5625 579.207031 442.371094 579.609375 443.21875 579.933594 C 444.066406 580.257812 444.941406 580.492188 445.835938 580.636719 C 446.734375 580.785156 447.636719 580.839844 448.542969 580.804688 Z M 448.441406 580.804688 "/><g clip-rule="nonzero" clip-path="url(#48a5e4150d)"><path style=" stroke:none;fill-rule:nonzero;fill:#ffffff;fill-opacity:1;" d="M 366.222656 567.324219 C 366.222656 565.757812 366.300781 564.195312 366.453125 562.632812 C 366.609375 561.074219 366.835938 559.527344 367.144531 557.988281 C 367.449219 556.453125 367.828125 554.933594 368.285156 553.433594 C 368.738281 551.933594 369.265625 550.457031 369.867188 549.011719 C 370.464844 547.5625 371.136719 546.148438 371.875 544.765625 C 372.613281 543.382812 373.417969 542.039062 374.289062 540.734375 C 375.160156 539.433594 376.09375 538.175781 377.085938 536.964844 C 378.082031 535.753906 379.132812 534.59375 380.242188 533.484375 C 381.351562 532.375 382.507812 531.324219 383.722656 530.328125 C 384.933594 529.335938 386.191406 528.402344 387.492188 527.53125 C 388.796875 526.660156 390.140625 525.855469 391.523438 525.117188 C 392.90625 524.378906 394.320312 523.707031 395.769531 523.109375 C 397.214844 522.507812 398.691406 521.980469 400.191406 521.527344 C 401.691406 521.070312 403.207031 520.691406 404.746094 520.386719 C 406.285156 520.078125 407.832031 519.851562 409.390625 519.695312 C 410.953125 519.542969 412.515625 519.464844 414.082031 519.464844 C 415.652344 519.464844 417.214844 519.542969 418.773438 519.695312 C 420.335938 519.851562 421.882812 520.078125 423.421875 520.386719 C 424.957031 520.691406 426.476562 521.070312 427.976562 521.527344 C 429.476562 521.980469 430.949219 522.507812 432.398438 523.109375 C 433.847656 523.707031 435.261719 524.378906 436.644531 525.117188 C 438.027344 525.855469 439.367188 526.660156 440.671875 527.53125 C 441.976562 528.402344 443.234375 529.335938 444.445312 530.328125 C 445.65625 531.324219 446.816406 532.375 447.925781 533.484375 C 449.03125 534.59375 450.085938 535.753906 451.078125 536.964844 C 452.074219 538.175781 453.007812 539.433594 453.875 540.734375 C 454.746094 542.039062 455.550781 543.382812 456.292969 544.765625 C 457.03125 546.148438 457.699219 547.5625 458.300781 549.011719 C 458.898438 550.457031 459.425781 551.933594 459.882812 553.433594 C 460.335938 554.933594 460.71875 556.453125 461.023438 557.988281 C 461.328125 559.527344 461.558594 561.074219 461.710938 562.632812 C 461.867188 564.195312 461.941406 565.757812 461.941406 567.324219 C 461.941406 568.894531 461.867188 570.457031 461.710938 572.015625 C 461.558594 573.578125 461.328125 575.125 461.023438 576.664062 C 460.71875 578.199219 460.335938 579.71875 459.882812 581.21875 C 459.425781 582.71875 458.898438 584.191406 458.300781 585.640625 C 457.699219 587.089844 457.03125 588.503906 456.292969 589.886719 C 455.550781 591.269531 454.746094 592.613281 453.875 593.914062 C 453.007812 595.21875 452.074219 596.476562 451.078125 597.6875 C 450.085938 598.898438 449.03125 600.058594 447.925781 601.167969 C 446.816406 602.277344 445.65625 603.328125 444.445312 604.320312 C 443.234375 605.316406 441.976562 606.25 440.671875 607.121094 C 439.367188 607.988281 438.027344 608.792969 436.644531 609.535156 C 435.261719 610.273438 433.847656 610.941406 432.398438 611.542969 C 430.949219 612.140625 429.476562 612.667969 427.976562 613.125 C 426.476562 613.578125 424.957031 613.960938 423.421875 614.265625 C 421.882812 614.570312 420.335938 614.800781 418.773438 614.953125 C 417.214844 615.109375 415.652344 615.183594 414.082031 615.183594 C 412.515625 615.183594 410.953125 615.105469 409.394531 614.949219 C 407.832031 614.796875 406.285156 614.566406 404.75 614.257812 C 403.210938 613.953125 401.695312 613.570312 400.195312 613.113281 C 398.695312 612.660156 397.222656 612.132812 395.773438 611.53125 C 394.328125 610.929688 392.910156 610.261719 391.53125 609.523438 C 390.148438 608.78125 388.804688 607.976562 387.503906 607.105469 C 386.199219 606.234375 384.945312 605.304688 383.730469 604.308594 C 382.519531 603.316406 381.359375 602.261719 380.253906 601.15625 C 379.144531 600.046875 378.09375 598.886719 377.097656 597.675781 C 376.105469 596.464844 375.171875 595.207031 374.300781 593.90625 C 373.429688 592.601562 372.625 591.261719 371.886719 589.878906 C 371.148438 588.496094 370.476562 587.082031 369.878906 585.632812 C 369.277344 584.1875 368.75 582.714844 368.292969 581.214844 C 367.835938 579.714844 367.457031 578.195312 367.148438 576.660156 C 366.84375 575.121094 366.613281 573.574219 366.457031 572.015625 C 366.304688 570.457031 366.226562 568.890625 366.222656 567.324219 Z M 393.203125 567.324219 C 393.203125 568.007812 393.234375 568.691406 393.300781 569.371094 C 393.367188 570.054688 393.46875 570.730469 393.601562 571.398438 C 393.734375 572.070312 393.898438 572.734375 394.097656 573.386719 C 394.296875 574.042969 394.523438 574.6875 394.785156 575.320312 C 395.046875 575.949219 395.339844 576.570312 395.660156 577.171875 C 395.984375 577.777344 396.332031 578.363281 396.714844 578.929688 C 397.09375 579.5 397.5 580.050781 397.933594 580.578125 C 398.367188 581.105469 398.824219 581.613281 399.308594 582.097656 C 399.789062 582.582031 400.296875 583.039062 400.824219 583.476562 C 401.351562 583.910156 401.902344 584.316406 402.46875 584.695312 C 403.039062 585.078125 403.625 585.429688 404.226562 585.753906 C 404.828125 586.074219 405.445312 586.367188 406.078125 586.628906 C 406.710938 586.890625 407.355469 587.121094 408.007812 587.320312 C 408.664062 587.519531 409.324219 587.6875 409.996094 587.820312 C 410.667969 587.953125 411.34375 588.054688 412.023438 588.121094 C 412.703125 588.191406 413.386719 588.222656 414.070312 588.226562 C 414.753906 588.226562 415.4375 588.191406 416.117188 588.125 C 416.796875 588.058594 417.472656 587.960938 418.144531 587.824219 C 418.816406 587.691406 419.476562 587.527344 420.132812 587.328125 C 420.785156 587.132812 421.429688 586.902344 422.0625 586.640625 C 422.695312 586.378906 423.3125 586.085938 423.914062 585.765625 C 424.519531 585.441406 425.105469 585.09375 425.671875 584.710938 C 426.242188 584.332031 426.792969 583.925781 427.320312 583.492188 C 427.847656 583.058594 428.355469 582.601562 428.839844 582.117188 C 429.324219 581.632812 429.78125 581.128906 430.214844 580.597656 C 430.652344 580.070312 431.058594 579.523438 431.4375 578.953125 C 431.816406 578.386719 432.167969 577.800781 432.492188 577.195312 C 432.816406 576.59375 433.109375 575.976562 433.371094 575.34375 C 433.632812 574.710938 433.863281 574.070312 434.0625 573.414062 C 434.257812 572.761719 434.425781 572.097656 434.558594 571.425781 C 434.691406 570.753906 434.792969 570.078125 434.859375 569.398438 C 434.929688 568.71875 434.960938 568.035156 434.960938 567.351562 C 434.960938 566.667969 434.929688 565.988281 434.863281 565.304688 C 434.796875 564.625 434.695312 563.949219 434.5625 563.277344 C 434.429688 562.609375 434.261719 561.945312 434.066406 561.289062 C 433.867188 560.636719 433.636719 559.992188 433.375 559.359375 C 433.113281 558.726562 432.820312 558.109375 432.5 557.507812 C 432.175781 556.90625 431.824219 556.320312 431.445312 555.75 C 431.066406 555.179688 430.660156 554.632812 430.226562 554.101562 C 429.792969 553.574219 429.332031 553.066406 428.847656 552.585938 C 428.367188 552.101562 427.859375 551.640625 427.332031 551.207031 C 426.800781 550.773438 426.253906 550.367188 425.683594 549.988281 C 425.117188 549.605469 424.53125 549.253906 423.925781 548.933594 C 423.324219 548.609375 422.707031 548.320312 422.074219 548.058594 C 421.441406 547.796875 420.800781 547.566406 420.144531 547.367188 C 419.492188 547.167969 418.828125 547 418.15625 546.867188 C 417.488281 546.734375 416.8125 546.632812 416.128906 546.566406 C 415.449219 546.5 414.765625 546.46875 414.082031 546.46875 C 413.398438 546.46875 412.71875 546.5 412.039062 546.570312 C 411.359375 546.636719 410.683594 546.738281 410.011719 546.871094 C 409.34375 547.003906 408.683594 547.171875 408.027344 547.371094 C 407.375 547.566406 406.730469 547.796875 406.101562 548.058594 C 405.46875 548.320312 404.851562 548.613281 404.25 548.933594 C 403.648438 549.257812 403.0625 549.609375 402.496094 549.988281 C 401.925781 550.367188 401.378906 550.773438 400.851562 551.207031 C 400.320312 551.640625 399.816406 552.097656 399.332031 552.582031 C 398.847656 553.0625 398.390625 553.570312 397.957031 554.097656 C 397.523438 554.625 397.117188 555.171875 396.734375 555.742188 C 396.355469 556.308594 396.003906 556.894531 395.683594 557.496094 C 395.359375 558.097656 395.066406 558.714844 394.804688 559.34375 C 394.542969 559.976562 394.3125 560.617188 394.113281 561.269531 C 393.914062 561.925781 393.746094 562.585938 393.613281 563.257812 C 393.476562 563.925781 393.375 564.601562 393.308594 565.28125 C 393.238281 565.960938 393.207031 566.640625 393.203125 567.324219 Z M 393.203125 567.324219 "/></g><path style=" stroke:none;fill-rule:nonzero;fill:#ffffff;fill-opacity:1;" d="M 881.953125 514.558594 L 987.363281 514.558594 C 988.269531 514.59375 989.171875 514.539062 990.070312 514.394531 C 990.964844 514.246094 991.839844 514.011719 992.6875 513.6875 C 993.535156 513.363281 994.34375 512.960938 995.113281 512.472656 C 995.878906 511.988281 996.589844 511.429688 997.246094 510.800781 C 997.898438 510.167969 998.484375 509.480469 999 508.734375 C 999.515625 507.984375 999.953125 507.191406 1000.308594 506.355469 C 1000.664062 505.519531 1000.933594 504.660156 1001.113281 503.769531 C 1001.296875 502.878906 1001.386719 501.980469 1001.386719 501.070312 C 1001.386719 500.160156 1001.296875 499.261719 1001.113281 498.371094 C 1000.933594 497.480469 1000.664062 496.621094 1000.308594 495.785156 C 999.953125 494.949219 999.515625 494.15625 999 493.40625 C 998.484375 492.660156 997.898438 491.96875 997.246094 491.339844 C 996.589844 490.710938 995.878906 490.152344 995.113281 489.667969 C 994.34375 489.179688 993.535156 488.777344 992.6875 488.453125 C 991.839844 488.128906 990.964844 487.894531 990.070312 487.746094 C 989.171875 487.601562 988.269531 487.542969 987.363281 487.578125 L 881.953125 487.578125 C 881.046875 487.542969 880.144531 487.601562 879.25 487.746094 C 878.351562 487.894531 877.480469 488.128906 876.628906 488.453125 C 875.78125 488.777344 874.972656 489.179688 874.207031 489.667969 C 873.4375 490.152344 872.726562 490.710938 872.070312 491.339844 C 871.417969 491.96875 870.832031 492.660156 870.316406 493.40625 C 869.800781 494.15625 869.363281 494.949219 869.007812 495.785156 C 868.652344 496.621094 868.386719 497.480469 868.203125 498.371094 C 868.023438 499.261719 867.929688 500.160156 867.929688 501.070312 C 867.929688 501.980469 868.023438 502.878906 868.203125 503.769531 C 868.386719 504.660156 868.652344 505.519531 869.007812 506.355469 C 869.367188 507.191406 869.800781 507.984375 870.316406 508.734375 C 870.832031 509.480469 871.417969 510.167969 872.070312 510.800781 C 872.726562 511.429688 873.4375 511.988281 874.207031 512.472656 C 874.972656 512.960938 875.78125 513.363281 876.628906 513.6875 C 877.480469 514.011719 878.351562 514.246094 879.25 514.394531 C 880.144531 514.539062 881.046875 514.59375 881.953125 514.558594 Z M 881.953125 514.558594 "/><path style=" stroke:none;fill-rule:nonzero;fill:#ffffff;fill-opacity:1;" d="M 973.964844 501.082031 C 973.964844 499.511719 974.039062 497.949219 974.191406 496.386719 C 974.34375 494.828125 974.574219 493.277344 974.878906 491.742188 C 975.183594 490.203125 975.566406 488.683594 976.019531 487.183594 C 976.472656 485.683594 977 484.210938 977.601562 482.761719 C 978.199219 481.3125 978.867188 479.894531 979.609375 478.511719 C 980.347656 477.128906 981.152344 475.789062 982.019531 474.484375 C 982.890625 473.179688 983.824219 471.921875 984.820312 470.710938 C 985.8125 469.496094 986.863281 468.335938 987.972656 467.226562 C 989.082031 466.117188 990.242188 465.066406 991.453125 464.070312 C 992.664062 463.078125 993.921875 462.144531 995.222656 461.273438 C 996.527344 460.402344 997.871094 459.597656 999.253906 458.855469 C 1000.636719 458.117188 1002.050781 457.449219 1003.5 456.847656 C 1004.949219 456.246094 1006.421875 455.71875 1007.921875 455.265625 C 1009.421875 454.808594 1010.941406 454.429688 1012.476562 454.121094 C 1014.015625 453.816406 1015.566406 453.585938 1017.125 453.433594 C 1018.683594 453.277344 1020.25 453.199219 1021.816406 453.199219 C 1023.382812 453.199219 1024.949219 453.277344 1026.507812 453.429688 C 1028.070312 453.582031 1029.617188 453.8125 1031.15625 454.121094 C 1032.691406 454.425781 1034.210938 454.804688 1035.710938 455.261719 C 1037.210938 455.714844 1038.6875 456.242188 1040.136719 456.84375 C 1041.582031 457.441406 1043 458.113281 1044.382812 458.851562 C 1045.765625 459.589844 1047.109375 460.394531 1048.410156 461.265625 C 1049.714844 462.136719 1050.972656 463.070312 1052.183594 464.0625 C 1053.394531 465.058594 1054.558594 466.109375 1055.664062 467.21875 C 1056.773438 468.328125 1057.824219 469.488281 1058.820312 470.699219 C 1059.8125 471.910156 1060.746094 473.167969 1061.617188 474.472656 C 1062.488281 475.777344 1063.292969 477.117188 1064.03125 478.5 C 1064.773438 479.882812 1065.441406 481.300781 1066.042969 482.75 C 1066.640625 484.195312 1067.167969 485.671875 1067.625 487.171875 C 1068.078125 488.671875 1068.457031 490.191406 1068.765625 491.726562 C 1069.070312 493.265625 1069.300781 494.816406 1069.453125 496.375 C 1069.605469 497.933594 1069.683594 499.5 1069.683594 501.066406 C 1069.683594 502.632812 1069.605469 504.199219 1069.453125 505.757812 C 1069.296875 507.320312 1069.066406 508.867188 1068.761719 510.40625 C 1068.457031 511.941406 1068.074219 513.460938 1067.621094 514.960938 C 1067.164062 516.460938 1066.636719 517.9375 1066.035156 519.382812 C 1065.4375 520.832031 1064.765625 522.25 1064.027344 523.628906 C 1063.289062 525.011719 1062.480469 526.355469 1061.609375 527.660156 C 1060.738281 528.960938 1059.804688 530.21875 1058.8125 531.429688 C 1057.816406 532.644531 1056.765625 533.804688 1055.65625 534.910156 C 1054.546875 536.019531 1053.386719 537.070312 1052.175781 538.066406 C 1050.960938 539.058594 1049.703125 539.992188 1048.398438 540.863281 C 1047.097656 541.734375 1045.753906 542.539062 1044.371094 543.277344 C 1042.988281 544.015625 1041.570312 544.683594 1040.121094 545.28125 C 1038.675781 545.882812 1037.199219 546.410156 1035.699219 546.863281 C 1034.199219 547.320312 1032.679688 547.699219 1031.140625 548.003906 C 1029.605469 548.308594 1028.054688 548.539062 1026.496094 548.691406 C 1024.933594 548.84375 1023.371094 548.921875 1021.804688 548.917969 C 1020.238281 548.917969 1018.675781 548.839844 1017.117188 548.683594 C 1015.558594 548.527344 1014.011719 548.296875 1012.472656 547.992188 C 1010.9375 547.683594 1009.421875 547.300781 1007.921875 546.847656 C 1006.425781 546.390625 1004.953125 545.863281 1003.503906 545.261719 C 1002.058594 544.660156 1000.644531 543.992188 999.265625 543.253906 C 997.882812 542.515625 996.542969 541.710938 995.238281 540.839844 C 993.9375 539.96875 992.679688 539.035156 991.46875 538.042969 C 990.261719 537.046875 989.101562 535.996094 987.992188 534.890625 C 986.886719 533.78125 985.835938 532.625 984.839844 531.414062 C 983.847656 530.203125 982.914062 528.945312 982.046875 527.644531 C 981.175781 526.34375 980.371094 525 979.628906 523.621094 C 978.890625 522.238281 978.222656 520.824219 977.621094 519.378906 C 977.019531 517.929688 976.492188 516.460938 976.039062 514.960938 C 975.582031 513.460938 975.199219 511.945312 974.894531 510.410156 C 974.585938 508.875 974.355469 507.324219 974.199219 505.765625 C 974.042969 504.207031 973.964844 502.648438 973.964844 501.082031 Z M 1000.945312 501.082031 C 1000.941406 501.765625 1000.972656 502.449219 1001.039062 503.128906 C 1001.101562 503.8125 1001.199219 504.488281 1001.332031 505.160156 C 1001.460938 505.832031 1001.625 506.496094 1001.820312 507.152344 C 1002.019531 507.804688 1002.246094 508.449219 1002.507812 509.085938 C 1002.765625 509.71875 1003.054688 510.335938 1003.375 510.941406 C 1003.695312 511.546875 1004.046875 512.132812 1004.425781 512.703125 C 1004.804688 513.273438 1005.210938 513.824219 1005.640625 514.355469 C 1006.074219 514.886719 1006.53125 515.394531 1007.015625 515.878906 C 1007.496094 516.363281 1008.003906 516.824219 1008.53125 517.261719 C 1009.058594 517.699219 1009.605469 518.105469 1010.171875 518.488281 C 1010.742188 518.871094 1011.328125 519.222656 1011.929688 519.546875 C 1012.53125 519.871094 1013.148438 520.167969 1013.78125 520.429688 C 1014.414062 520.691406 1015.054688 520.925781 1015.710938 521.125 C 1016.367188 521.324219 1017.027344 521.492188 1017.699219 521.628906 C 1018.371094 521.765625 1019.046875 521.867188 1019.726562 521.933594 C 1020.410156 522.003906 1021.089844 522.039062 1021.777344 522.039062 C 1022.460938 522.042969 1023.144531 522.011719 1023.824219 521.945312 C 1024.507812 521.878906 1025.183594 521.78125 1025.855469 521.648438 C 1026.527344 521.515625 1027.1875 521.351562 1027.84375 521.152344 C 1028.5 520.957031 1029.144531 520.726562 1029.777344 520.464844 C 1030.410156 520.207031 1031.027344 519.914062 1031.632812 519.59375 C 1032.238281 519.269531 1032.824219 518.921875 1033.394531 518.539062 C 1033.964844 518.160156 1034.515625 517.753906 1035.042969 517.320312 C 1035.574219 516.886719 1036.082031 516.429688 1036.566406 515.945312 C 1037.050781 515.464844 1037.511719 514.957031 1037.945312 514.429688 C 1038.378906 513.898438 1038.789062 513.351562 1039.167969 512.78125 C 1039.550781 512.214844 1039.902344 511.628906 1040.226562 511.023438 C 1040.550781 510.421875 1040.84375 509.804688 1041.105469 509.171875 C 1041.367188 508.539062 1041.597656 507.894531 1041.796875 507.242188 C 1041.996094 506.585938 1042.164062 505.921875 1042.296875 505.253906 C 1042.429688 504.582031 1042.53125 503.90625 1042.601562 503.222656 C 1042.667969 502.542969 1042.703125 501.859375 1042.703125 501.175781 C 1042.703125 500.492188 1042.667969 499.808594 1042.601562 499.125 C 1042.535156 498.445312 1042.4375 497.769531 1042.304688 497.097656 C 1042.167969 496.425781 1042.003906 495.761719 1041.804688 495.109375 C 1041.605469 494.453125 1041.375 493.808594 1041.113281 493.175781 C 1040.851562 492.542969 1040.5625 491.925781 1040.238281 491.320312 C 1039.914062 490.71875 1039.5625 490.132812 1039.183594 489.5625 C 1038.804688 488.992188 1038.398438 488.445312 1037.960938 487.914062 C 1037.527344 487.386719 1037.070312 486.878906 1036.585938 486.394531 C 1036.101562 485.910156 1035.59375 485.453125 1035.066406 485.019531 C 1034.535156 484.585938 1033.984375 484.175781 1033.417969 483.796875 C 1032.847656 483.417969 1032.261719 483.066406 1031.65625 482.742188 C 1031.054688 482.421875 1030.433594 482.128906 1029.800781 481.867188 C 1029.171875 481.605469 1028.527344 481.375 1027.871094 481.175781 C 1027.214844 480.980469 1026.550781 480.8125 1025.882812 480.679688 C 1025.210938 480.546875 1024.53125 480.449219 1023.851562 480.382812 C 1023.171875 480.316406 1022.488281 480.28125 1021.804688 480.28125 C 1021.121094 480.28125 1020.441406 480.316406 1019.761719 480.382812 C 1019.085938 480.453125 1018.410156 480.550781 1017.742188 480.683594 C 1017.074219 480.816406 1016.414062 480.984375 1015.761719 481.183594 C 1015.109375 481.378906 1014.46875 481.609375 1013.839844 481.871094 C 1013.207031 482.128906 1012.59375 482.421875 1011.992188 482.742188 C 1011.390625 483.0625 1010.804688 483.414062 1010.238281 483.792969 C 1009.671875 484.167969 1009.125 484.574219 1008.597656 485.007812 C 1008.070312 485.4375 1007.5625 485.894531 1007.082031 486.375 C 1006.597656 486.859375 1006.140625 487.359375 1005.707031 487.886719 C 1005.273438 488.414062 1004.867188 488.960938 1004.488281 489.527344 C 1004.105469 490.09375 1003.753906 490.675781 1003.433594 491.277344 C 1003.109375 491.875 1002.816406 492.492188 1002.554688 493.121094 C 1002.292969 493.75 1002.0625 494.390625 1001.863281 495.042969 C 1001.660156 495.691406 1001.492188 496.351562 1001.359375 497.019531 C 1001.222656 497.6875 1001.121094 498.363281 1001.050781 499.039062 C 1000.984375 499.71875 1000.945312 500.398438 1000.945312 501.082031 Z M 1000.945312 501.082031 "/></g></svg>