<svg xmlns="http://www.w3.org/2000/svg" xmlns:xlink="http://www.w3.org/1999/xlink" width="700" zoomAndPan="magnify" viewBox="0 0 525 525.000007" height="700" preserveAspectRatio="xMidYMid meet" version="1.2"><defs><clipPath id="e27ca004c7"><path d="M 98.703125 224.996094 L 199.5625 224.996094 L 199.5625 377 L 98.703125 377 Z M 98.703125 224.996094 "/></clipPath><clipPath id="5dc6337001"><path d="M 135.386719 224.996094 L 162.882812 224.996094 C 172.609375 224.996094 181.941406 228.859375 188.820312 235.738281 C 195.699219 242.617188 199.5625 251.945312 199.5625 261.675781 L 199.5625 340.199219 C 199.5625 349.925781 195.699219 359.257812 188.820312 366.136719 C 181.941406 373.015625 172.609375 376.878906 162.882812 376.878906 L 135.386719 376.878906 C 125.65625 376.878906 116.328125 373.015625 109.449219 366.136719 C 102.570312 359.257812 98.703125 349.925781 98.703125 340.199219 L 98.703125 261.675781 C 98.703125 251.945312 102.570312 242.617188 109.449219 235.738281 C 116.328125 228.859375 125.65625 224.996094 135.386719 224.996094 Z M 135.386719 224.996094 "/></clipPath><clipPath id="fda1176c38"><path d="M 211.761719 53.121094 L 312.621094 53.121094 L 312.621094 394.703125 L 211.761719 394.703125 Z M 211.761719 53.121094 "/></clipPath><clipPath id="5e73135070"><path d="M 248.441406 53.121094 L 275.941406 53.121094 C 285.667969 53.121094 295 56.988281 301.878906 63.867188 C 308.757812 70.746094 312.621094 80.074219 312.621094 89.804688 L 312.621094 357.996094 C 312.621094 367.722656 308.757812 377.054688 301.878906 383.933594 C 295 390.8125 285.667969 394.675781 275.941406 394.675781 L 248.441406 394.675781 C 238.714844 394.675781 229.382812 390.8125 222.503906 383.933594 C 215.625 377.054688 211.761719 367.722656 211.761719 357.996094 L 211.761719 89.804688 C 211.761719 80.074219 215.625 70.746094 222.503906 63.867188 C 229.382812 56.988281 238.714844 53.121094 248.441406 53.121094 Z M 248.441406 53.121094 "/></clipPath><clipPath id="94e8955cde"><path d="M 325.4375 13.550781 L 426.296875 13.550781 L 426.296875 510.753906 L 325.4375 510.753906 Z M 325.4375 13.550781 "/></clipPath><clipPath id="40eb94844f"><path d="M 362.117188 13.550781 L 389.613281 13.550781 C 399.34375 13.550781 408.671875 17.414062 415.550781 24.292969 C 422.429688 31.171875 426.296875 40.503906 426.296875 50.230469 L 426.296875 473.769531 C 426.296875 483.5 422.429688 492.828125 415.550781 499.707031 C 408.671875 506.585938 399.34375 510.449219 389.613281 510.449219 L 362.117188 510.449219 C 352.386719 510.449219 343.058594 506.585938 336.179688 499.707031 C 329.300781 492.828125 325.4375 483.5 325.4375 473.769531 L 325.4375 50.230469 C 325.4375 40.503906 329.300781 31.171875 336.179688 24.292969 C 343.058594 17.414062 352.386719 13.550781 362.117188 13.550781 Z M 362.117188 13.550781 "/></clipPath></defs><g id="9d77e5fcdf"><g clip-rule="nonzero" clip-path="url(#e27ca004c7)"><g clip-rule="nonzero" clip-path="url(#5dc6337001)"><path style=" stroke:none;fill-rule:nonzero;fill:#4a5565;fill-opacity:1;" d="M 98.703125 224.996094 L 199.5625 224.996094 L 199.5625 377.070312 L 98.703125 377.070312 Z M 98.703125 224.996094 "/></g></g><g clip-rule="nonzero" clip-path="url(#fda1176c38)"><g clip-rule="nonzero" clip-path="url(#5e73135070)"><path style=" stroke:none;fill-rule:nonzero;fill:#4a5565;fill-opacity:1;" d="M 211.761719 53.121094 L 312.621094 53.121094 L 312.621094 394.703125 L 211.761719 394.703125 Z M 211.761719 53.121094 "/></g></g><g clip-rule="nonzero" clip-path="url(#94e8955cde)"><g clip-rule="nonzero" clip-path="url(#40eb94844f)"><path style=" stroke:none;fill-rule:nonzero;fill:#4a5565;fill-opacity:1;" d="M 325.4375 13.550781 L 426.296875 13.550781 L 426.296875 510.359375 L 325.4375 510.359375 Z M 325.4375 13.550781 "/></g></g></g></svg>