<svg xmlns="http://www.w3.org/2000/svg" xmlns:xlink="http://www.w3.org/1999/xlink" width="1850" zoomAndPan="magnify" viewBox="0 0 1387.5 449.999984" height="600" preserveAspectRatio="xMidYMid meet" version="1.2"><defs><clipPath id="ed2d37316b"><path d="M 0 193.925781 L 84.691406 193.925781 L 84.691406 321.621094 L 0 321.621094 Z M 0 193.925781 "/></clipPath><clipPath id="ea7b7950ed"><path d="M 36.738281 193.925781 L 47.953125 193.925781 C 57.695312 193.925781 67.039062 197.796875 73.929688 204.6875 C 80.820312 211.574219 84.691406 220.921875 84.691406 230.664062 L 84.691406 284.722656 C 84.691406 294.46875 80.820312 303.8125 73.929688 310.703125 C 67.039062 317.589844 57.695312 321.460938 47.953125 321.460938 L 36.738281 321.460938 C 26.992188 321.460938 17.648438 317.589844 10.761719 310.703125 C 3.871094 303.8125 0 294.46875 0 284.722656 L 0 230.664062 C 0 220.921875 3.871094 211.574219 10.761719 204.6875 C 17.648438 197.796875 26.992188 193.925781 36.738281 193.925781 Z M 36.738281 193.925781 "/></clipPath><clipPath id="39cbb2d238"><path d="M 94.933594 49.609375 L 179.621094 49.609375 L 179.621094 336.425781 L 94.933594 336.425781 Z M 94.933594 49.609375 "/></clipPath><clipPath id="47aa7022ef"><path d="M 131.667969 49.609375 L 142.886719 49.609375 C 152.628906 49.609375 161.972656 53.476562 168.863281 60.367188 C 175.75 67.257812 179.621094 76.601562 179.621094 86.34375 L 179.621094 299.667969 C 179.621094 309.410156 175.75 318.753906 168.863281 325.644531 C 161.972656 332.535156 152.628906 336.40625 142.886719 336.40625 L 131.667969 336.40625 C 121.925781 336.40625 112.582031 332.535156 105.691406 325.644531 C 98.804688 318.753906 94.933594 309.410156 94.933594 299.667969 L 94.933594 86.34375 C 94.933594 76.601562 98.804688 67.257812 105.691406 60.367188 C 112.582031 53.476562 121.925781 49.609375 131.667969 49.609375 Z M 131.667969 49.609375 "/></clipPath><clipPath id="05e65c40db"><path d="M 190.382812 16.378906 L 275.074219 16.378906 L 275.074219 433.871094 L 190.382812 433.871094 Z M 190.382812 16.378906 "/></clipPath><clipPath id="b36dfcb88c"><path d="M 227.121094 16.378906 L 238.335938 16.378906 C 248.078125 16.378906 257.421875 20.25 264.3125 27.140625 C 271.203125 34.03125 275.074219 43.375 275.074219 53.117188 L 275.074219 396.882812 C 275.074219 406.625 271.203125 415.96875 264.3125 422.859375 C 257.421875 429.75 248.078125 433.621094 238.335938 433.621094 L 227.121094 433.621094 C 217.378906 433.621094 208.03125 429.75 201.144531 422.859375 C 194.253906 415.96875 190.382812 406.625 190.382812 396.882812 L 190.382812 53.117188 C 190.382812 43.375 194.253906 34.03125 201.144531 27.140625 C 208.03125 20.25 217.378906 16.378906 227.121094 16.378906 Z M 227.121094 16.378906 "/></clipPath></defs><g id="091de31ac3"><g clip-rule="nonzero" clip-path="url(#ed2d37316b)"><g clip-rule="nonzero" clip-path="url(#ea7b7950ed)"><path style=" stroke:none;fill-rule:nonzero;fill:#4a5565;fill-opacity:1;" d="M 0 193.925781 L 84.691406 193.925781 L 84.691406 321.621094 L 0 321.621094 Z M 0 193.925781 "/></g></g><g clip-rule="nonzero" clip-path="url(#39cbb2d238)"><g clip-rule="nonzero" clip-path="url(#47aa7022ef)"><path style=" stroke:none;fill-rule:nonzero;fill:#4a5565;fill-opacity:1;" d="M 94.933594 49.609375 L 179.621094 49.609375 L 179.621094 336.425781 L 94.933594 336.425781 Z M 94.933594 49.609375 "/></g></g><g clip-rule="nonzero" clip-path="url(#05e65c40db)"><g clip-rule="nonzero" clip-path="url(#b36dfcb88c)"><path style=" stroke:none;fill-rule:nonzero;fill:#4a5565;fill-opacity:1;" d="M 190.382812 16.378906 L 275.074219 16.378906 L 275.074219 433.542969 L 190.382812 433.542969 Z M 190.382812 16.378906 "/></g></g><g style="fill:#000000;fill-opacity:1;"><g transform="translate(311.146708, 276.654368)"><path style="stroke:none" d="M 76.21875 -81.453125 C 76.675781 -81.453125 77.269531 -81.269531 78 -80.90625 C 78.726562 -80.550781 79.09375 -79.613281 79.09375 -78.09375 L 79.09375 -70.390625 C 79.09375 -68.742188 78.726562 -67.738281 78 -67.375 C 77.269531 -67.007812 76.675781 -66.828125 76.21875 -66.828125 L 50.8125 -66.828125 L 50.8125 -3.359375 C 50.8125 -1.847656 50.460938 -0.910156 49.765625 -0.546875 C 49.078125 -0.179688 48.503906 0 48.046875 0 L 38.953125 0 C 38.554688 0 37.992188 -0.179688 37.265625 -0.546875 C 36.546875 -0.910156 36.1875 -1.847656 36.1875 -3.359375 L 36.1875 -66.828125 L 10.78125 -66.828125 C 10.3125 -66.828125 9.710938 -67.007812 8.984375 -67.375 C 8.265625 -67.738281 7.90625 -68.742188 7.90625 -70.390625 L 7.90625 -78.09375 C 7.90625 -79.613281 8.265625 -80.550781 8.984375 -80.90625 C 9.710938 -81.269531 10.3125 -81.453125 10.78125 -81.453125 Z M 76.21875 -81.453125 "/></g></g><g style="fill:#000000;fill-opacity:1;"><g transform="translate(403.073574, 276.654368)"><path style="stroke:none" d="M 71.765625 -81.453125 C 72.234375 -81.453125 72.828125 -81.253906 73.546875 -80.859375 C 74.273438 -80.472656 74.640625 -79.519531 74.640625 -78 L 74.640625 -3.359375 C 74.640625 -1.847656 74.273438 -0.894531 73.546875 -0.5 C 72.828125 -0.101562 72.234375 0.09375 71.765625 0.09375 L 62.671875 0.09375 C 62.273438 0.09375 61.726562 -0.101562 61.03125 -0.5 C 60.34375 -0.894531 60 -1.847656 60 -3.359375 L 60 -33.8125 L 22.546875 -33.8125 L 22.546875 -3.359375 C 22.546875 -1.847656 22.195312 -0.894531 21.5 -0.5 C 20.8125 -0.101562 20.234375 0.09375 19.765625 0.09375 L 10.78125 0.09375 C 10.3125 0.09375 9.710938 -0.101562 8.984375 -0.5 C 8.265625 -0.894531 7.90625 -1.847656 7.90625 -3.359375 L 7.90625 -78 C 7.90625 -79.519531 8.265625 -80.472656 8.984375 -80.859375 C 9.710938 -81.253906 10.3125 -81.453125 10.78125 -81.453125 L 19.765625 -81.453125 C 20.234375 -81.453125 20.8125 -81.253906 21.5 -80.859375 C 22.195312 -80.472656 22.546875 -79.519531 22.546875 -78 L 22.546875 -48.4375 L 60 -48.4375 L 60 -78 C 60 -79.519531 60.34375 -80.472656 61.03125 -80.859375 C 61.726562 -81.253906 62.273438 -81.453125 62.671875 -81.453125 Z M 71.765625 -81.453125 "/></g></g><g style="fill:#000000;fill-opacity:1;"><g transform="translate(490.552378, 276.654368)"><path style="stroke:none" d="M 67.328125 -17.703125 C 67.785156 -17.703125 68.375 -17.519531 69.09375 -17.15625 C 69.820312 -16.789062 70.1875 -15.847656 70.1875 -14.328125 L 70.1875 -3.453125 C 70.1875 -1.941406 69.820312 -1.003906 69.09375 -0.640625 C 68.375 -0.273438 67.785156 -0.09375 67.328125 -0.09375 L 32.234375 -0.09375 C 30.054688 -0.09375 28.039062 -0.222656 26.1875 -0.484375 C 24.34375 -0.753906 22.664062 -1.1875 21.15625 -1.78125 C 17.925781 -2.894531 15.351562 -4.707031 13.4375 -7.21875 C 11.46875 -9.789062 10.050781 -13.019531 9.1875 -16.90625 C 8.863281 -18.550781 8.582031 -20.363281 8.34375 -22.34375 C 8.113281 -24.320312 7.96875 -26.460938 7.90625 -28.765625 L 7.90625 -29.265625 L 8.109375 -41.71875 C 8.304688 -42.445312 8.664062 -43.269531 9.1875 -44.1875 C 10.644531 -46.757812 12.890625 -48.144531 15.921875 -48.34375 L 66.921875 -48.4375 C 67.316406 -48.4375 67.878906 -48.253906 68.609375 -47.890625 C 69.335938 -47.535156 69.703125 -46.597656 69.703125 -45.078125 L 69.703125 -37.265625 C 69.703125 -35.753906 69.335938 -34.800781 68.609375 -34.40625 C 67.878906 -34.007812 67.316406 -33.8125 66.921875 -33.8125 L 22.734375 -33.8125 C 22.734375 -33.8125 22.71875 -33.445312 22.6875 -32.71875 C 22.65625 -32 22.625 -31.175781 22.59375 -30.25 C 22.5625 -29.320312 22.546875 -28.492188 22.546875 -27.765625 C 22.546875 -27.046875 22.546875 -26.6875 22.546875 -26.6875 C 22.609375 -26.425781 22.640625 -26.144531 22.640625 -25.84375 C 22.640625 -25.550781 22.671875 -25.273438 22.734375 -25.015625 C 23.003906 -23.171875 23.566406 -21.6875 24.421875 -20.5625 C 25.210938 -19.570312 26.203125 -18.847656 27.390625 -18.390625 C 28.109375 -18.191406 28.878906 -18.023438 29.703125 -17.890625 C 30.523438 -17.765625 31.46875 -17.703125 32.53125 -17.703125 Z M 16.609375 -47.546875 Z M 67.421875 -81.65625 C 67.816406 -81.65625 68.375 -81.457031 69.09375 -81.0625 C 69.820312 -80.664062 70.1875 -79.710938 70.1875 -78.203125 L 70.1875 -70.390625 C 70.1875 -68.867188 69.820312 -67.910156 69.09375 -67.515625 C 68.375 -67.117188 67.816406 -66.921875 67.421875 -66.921875 L 10.578125 -67.03125 C 10.179688 -67.03125 9.632812 -67.207031 8.9375 -67.5625 C 8.25 -67.925781 7.90625 -68.867188 7.90625 -70.390625 L 7.90625 -78.09375 C 7.90625 -79.675781 8.25 -80.664062 8.9375 -81.0625 C 9.632812 -81.457031 10.179688 -81.65625 10.578125 -81.65625 Z M 67.421875 -81.65625 "/></g></g><g style="fill:#000000;fill-opacity:1;"><g transform="translate(573.583101, 276.654368)"><path style="stroke:none" d=""/></g></g><g style="fill:#000000;fill-opacity:1;"><g transform="translate(629.332309, 276.654368)"><path style="stroke:none" d="M 56.34375 -81.453125 C 63.070312 -81.453125 67.914062 -79.347656 70.875 -75.140625 C 73.78125 -71.179688 75.234375 -65.210938 75.234375 -57.234375 L 75.234375 -57.828125 C 75.234375 -49.984375 73.78125 -44.019531 70.875 -39.9375 C 67.914062 -35.789062 63.070312 -33.71875 56.34375 -33.71875 L 22.546875 -33.609375 L 22.546875 -3.359375 C 22.546875 -1.847656 22.179688 -0.894531 21.453125 -0.5 C 20.722656 -0.101562 20.160156 0.09375 19.765625 0.09375 L 10.671875 0.09375 C 10.273438 0.09375 9.710938 -0.101562 8.984375 -0.5 C 8.265625 -0.894531 7.90625 -1.847656 7.90625 -3.359375 L 7.90625 -44.875 C 7.90625 -46.394531 8.265625 -47.335938 8.984375 -47.703125 C 9.710938 -48.066406 10.273438 -48.25 10.671875 -48.25 L 53.78125 -48.25 C 56.28125 -48.25 58.023438 -48.972656 59.015625 -50.421875 C 60.066406 -51.867188 60.59375 -54.238281 60.59375 -57.53125 C 60.59375 -60.832031 60.066406 -63.207031 59.015625 -64.65625 C 58.023438 -66.101562 56.28125 -66.828125 53.78125 -66.828125 L 10.671875 -66.828125 C 10.273438 -66.828125 9.710938 -67.007812 8.984375 -67.375 C 8.265625 -67.738281 7.90625 -68.675781 7.90625 -70.1875 L 7.90625 -78 C 7.90625 -79.582031 8.265625 -80.550781 8.984375 -80.90625 C 9.710938 -81.269531 10.273438 -81.453125 10.671875 -81.453125 Z M 56.34375 -81.453125 "/></g></g><g style="fill:#000000;fill-opacity:1;"><g transform="translate(717.404176, 276.654368)"><path style="stroke:none" d="M 75.234375 -74.25 C 77.140625 -71.875 78.554688 -68.644531 79.484375 -64.5625 C 79.878906 -62.644531 80.191406 -60.5 80.421875 -58.125 C 80.648438 -55.757812 80.765625 -53.222656 80.765625 -50.515625 L 80.765625 -30.9375 C 80.765625 -28.175781 80.648438 -25.609375 80.421875 -23.234375 C 80.191406 -20.859375 79.878906 -18.71875 79.484375 -16.8125 C 78.554688 -12.789062 77.140625 -9.523438 75.234375 -7.015625 C 73.191406 -4.441406 70.617188 -2.628906 67.515625 -1.578125 C 64.359375 -0.460938 60.632812 0.09375 56.34375 0.09375 L 32.234375 0.09375 C 27.878906 0.09375 24.1875 -0.460938 21.15625 -1.578125 C 18.0625 -2.628906 15.488281 -4.476562 13.4375 -7.125 C 11.46875 -9.6875 10.050781 -12.914062 9.1875 -16.8125 C 8.726562 -18.71875 8.398438 -20.859375 8.203125 -23.234375 C 8.003906 -25.609375 7.90625 -28.175781 7.90625 -30.9375 L 7.90625 -50.515625 C 7.90625 -56.179688 8.332031 -60.863281 9.1875 -64.5625 C 10.050781 -68.445312 11.46875 -71.675781 13.4375 -74.25 C 15.488281 -76.75 18.0625 -78.59375 21.15625 -79.78125 C 24.320312 -80.894531 28.015625 -81.453125 32.234375 -81.453125 L 56.34375 -81.453125 C 60.632812 -81.453125 64.359375 -80.894531 67.515625 -79.78125 C 70.617188 -78.59375 73.191406 -76.75 75.234375 -74.25 Z M 66.03125 -52.203125 C 66.03125 -53.648438 66 -54.984375 65.9375 -56.203125 C 65.875 -57.421875 65.742188 -58.523438 65.546875 -59.515625 C 65.273438 -61.359375 64.710938 -62.84375 63.859375 -63.96875 C 63.203125 -64.882812 62.210938 -65.609375 60.890625 -66.140625 C 60.234375 -66.335938 59.492188 -66.5 58.671875 -66.625 C 57.847656 -66.757812 56.910156 -66.828125 55.859375 -66.828125 L 32.71875 -66.828125 C 31.664062 -66.828125 30.726562 -66.757812 29.90625 -66.625 C 29.082031 -66.5 28.34375 -66.335938 27.6875 -66.140625 C 26.363281 -65.609375 25.375 -64.882812 24.71875 -63.96875 C 24.320312 -63.4375 23.988281 -62.789062 23.71875 -62.03125 C 23.457031 -61.269531 23.226562 -60.429688 23.03125 -59.515625 C 22.90625 -58.523438 22.789062 -57.421875 22.6875 -56.203125 C 22.59375 -54.984375 22.546875 -53.648438 22.546875 -52.203125 L 22.546875 -29.15625 C 22.546875 -27.707031 22.59375 -26.375 22.6875 -25.15625 C 22.789062 -23.9375 22.90625 -22.832031 23.03125 -21.84375 C 23.226562 -20.988281 23.457031 -20.179688 23.71875 -19.421875 C 23.988281 -18.660156 24.320312 -18.019531 24.71875 -17.5 C 25.375 -16.445312 26.363281 -15.722656 27.6875 -15.328125 C 28.863281 -14.859375 30.539062 -14.625 32.71875 -14.625 L 55.859375 -14.625 C 58.035156 -14.625 59.710938 -14.859375 60.890625 -15.328125 C 62.210938 -15.722656 63.203125 -16.445312 63.859375 -17.5 C 64.648438 -18.488281 65.210938 -19.9375 65.546875 -21.84375 C 65.742188 -22.832031 65.875 -23.9375 65.9375 -25.15625 C 66 -26.375 66.03125 -27.707031 66.03125 -29.15625 Z M 66.03125 -52.203125 "/></g></g><g style="fill:#000000;fill-opacity:1;"><g transform="translate(811.011405, 276.654368)"><path style="stroke:none" d="M 64.953125 -14.625 C 65.410156 -14.625 65.984375 -14.425781 66.671875 -14.03125 C 67.367188 -13.632812 67.71875 -12.679688 67.71875 -11.171875 L 67.71875 -3.359375 C 67.71875 -1.847656 67.367188 -0.894531 66.671875 -0.5 C 65.984375 -0.101562 65.410156 0.09375 64.953125 0.09375 L 32.328125 0.09375 C 27.972656 0.09375 24.28125 -0.460938 21.25 -1.578125 C 18.15625 -2.628906 15.585938 -4.476562 13.546875 -7.125 C 11.628906 -9.488281 10.210938 -12.71875 9.296875 -16.8125 C 8.367188 -20.832031 7.90625 -25.539062 7.90625 -30.9375 L 7.90625 -78 C 7.90625 -79.582031 8.265625 -80.550781 8.984375 -80.90625 C 9.710938 -81.269531 10.3125 -81.453125 10.78125 -81.453125 L 19.875 -81.453125 C 20.269531 -81.453125 20.828125 -81.269531 21.546875 -80.90625 C 22.273438 -80.550781 22.640625 -79.582031 22.640625 -78 L 22.640625 -29.265625 C 22.640625 -27.816406 22.671875 -26.460938 22.734375 -25.203125 C 22.804688 -23.953125 22.941406 -22.832031 23.140625 -21.84375 C 23.398438 -20.0625 23.957031 -18.613281 24.8125 -17.5 C 25.46875 -16.445312 26.425781 -15.722656 27.6875 -15.328125 C 29 -14.859375 30.710938 -14.625 32.828125 -14.625 Z M 64.953125 -14.625 "/></g></g><g style="fill:#000000;fill-opacity:1;"><g transform="translate(891.570996, 276.654368)"><path style="stroke:none" d="M 81.0625 -81.453125 C 81.914062 -81.453125 82.507812 -81.023438 82.84375 -80.171875 C 83.039062 -79.378906 82.941406 -78.625 82.546875 -77.90625 L 52.59375 -25.015625 L 52.59375 -3.359375 C 52.59375 -1.847656 52.226562 -0.910156 51.5 -0.546875 C 50.78125 -0.179688 50.222656 0 49.828125 0 L 40.734375 0 C 40.335938 0 39.773438 -0.179688 39.046875 -0.546875 C 38.328125 -0.910156 37.96875 -1.847656 37.96875 -3.359375 L 37.96875 -25.015625 L 8.296875 -77.90625 C 7.910156 -78.625 7.8125 -79.347656 8 -80.078125 C 8.195312 -80.992188 8.789062 -81.453125 9.78125 -81.453125 L 21.0625 -81.453125 C 21.519531 -81.453125 22.007812 -81.335938 22.53125 -81.109375 C 23.0625 -80.878906 23.523438 -80.367188 23.921875 -79.578125 L 45.46875 -40.03125 L 67.21875 -79.6875 C 67.613281 -80.40625 68.078125 -80.878906 68.609375 -81.109375 C 69.140625 -81.335938 69.632812 -81.453125 70.09375 -81.453125 Z M 81.0625 -81.453125 "/></g></g><g style="fill:#000000;fill-opacity:1;"><g transform="translate(987.352863, 276.654368)"><path style="stroke:none" d="M 55.65625 -48.640625 C 60.800781 -48.640625 64.722656 -46.828125 67.421875 -43.203125 C 69.992188 -39.640625 71.28125 -34.628906 71.28125 -28.171875 L 71.28125 -19.46875 C 71.28125 -13.800781 70.023438 -9.15625 67.515625 -5.53125 C 64.953125 -1.84375 60.929688 0 55.453125 0 L 10.875 0 C 10.414062 0 9.820312 -0.179688 9.09375 -0.546875 C 8.363281 -0.910156 8 -1.847656 8 -3.359375 L 8 -11.265625 C 8 -12.785156 8.363281 -13.722656 9.09375 -14.078125 C 9.820312 -14.441406 10.414062 -14.625 10.875 -14.625 L 53.09375 -14.625 C 53.945312 -14.625 54.550781 -14.769531 54.90625 -15.0625 C 55.269531 -15.363281 55.550781 -15.648438 55.75 -15.921875 C 56.34375 -16.910156 56.640625 -18.289062 56.640625 -20.0625 L 56.640625 -28.578125 C 56.640625 -31.015625 56.242188 -32.523438 55.453125 -33.109375 C 54.671875 -33.703125 53.914062 -34 53.1875 -34 L 23.53125 -34 C 21.488281 -34 19.394531 -34.265625 17.25 -34.796875 C 15.101562 -35.328125 13.273438 -36.613281 11.765625 -38.65625 C 9.191406 -42.28125 7.90625 -47.550781 7.90625 -54.46875 L 7.90625 -61.984375 C 7.90625 -67.785156 9.191406 -72.460938 11.765625 -76.015625 C 14.335938 -79.640625 18.320312 -81.453125 23.71875 -81.453125 L 66.328125 -81.453125 C 66.722656 -81.453125 67.285156 -81.269531 68.015625 -80.90625 C 68.742188 -80.550781 69.109375 -79.613281 69.109375 -78.09375 L 69.109375 -70.1875 C 69.109375 -68.675781 68.742188 -67.738281 68.015625 -67.375 C 67.285156 -67.007812 66.722656 -66.828125 66.328125 -66.828125 L 26.09375 -66.828125 C 25.238281 -66.828125 24.628906 -66.691406 24.265625 -66.421875 C 23.898438 -66.160156 23.617188 -65.867188 23.421875 -65.546875 C 22.898438 -64.492188 22.640625 -63.109375 22.640625 -61.390625 L 22.640625 -54.078125 C 22.640625 -51.640625 23.015625 -50.125 23.765625 -49.53125 C 24.523438 -48.9375 25.269531 -48.640625 26 -48.640625 Z M 55.65625 -48.640625 "/></g></g><g style="fill:#000000;fill-opacity:1;"><g transform="translate(1071.470865, 276.654368)"><path style="stroke:none" d="M 19.765625 -81.453125 C 20.160156 -81.453125 20.722656 -81.253906 21.453125 -80.859375 C 22.179688 -80.472656 22.546875 -79.519531 22.546875 -78 L 22.546875 -3.359375 C 22.546875 -1.847656 22.179688 -0.894531 21.453125 -0.5 C 20.722656 -0.101562 20.160156 0.09375 19.765625 0.09375 L 10.671875 0.09375 C 10.273438 0.09375 9.710938 -0.101562 8.984375 -0.5 C 8.265625 -0.894531 7.90625 -1.847656 7.90625 -3.359375 L 7.90625 -78 C 7.90625 -79.519531 8.265625 -80.472656 8.984375 -80.859375 C 9.710938 -81.253906 10.273438 -81.453125 10.671875 -81.453125 Z M 19.765625 -81.453125 "/></g></g><g style="fill:#000000;fill-opacity:1;"><g transform="translate(1106.857792, 276.654368)"><path style="stroke:none" d="M 74.84375 -81.453125 C 75.226562 -81.453125 75.785156 -81.253906 76.515625 -80.859375 C 77.242188 -80.472656 77.609375 -79.519531 77.609375 -78 L 77.609375 -70.28125 C 77.609375 -68.707031 77.242188 -67.738281 76.515625 -67.375 C 75.785156 -67.007812 75.226562 -66.828125 74.84375 -66.828125 L 32.828125 -66.828125 C 31.765625 -66.828125 30.804688 -66.757812 29.953125 -66.625 C 29.097656 -66.5 28.34375 -66.335938 27.6875 -66.140625 C 26.5 -65.671875 25.507812 -64.945312 24.71875 -63.96875 C 23.925781 -62.78125 23.398438 -61.328125 23.140625 -59.609375 C 22.742188 -57.628906 22.546875 -55.160156 22.546875 -52.203125 L 22.546875 -29.265625 C 22.546875 -26.296875 22.742188 -23.820312 23.140625 -21.84375 C 23.398438 -20.0625 23.925781 -18.613281 24.71875 -17.5 C 25.507812 -16.445312 26.5 -15.722656 27.6875 -15.328125 C 28.863281 -14.859375 30.578125 -14.625 32.828125 -14.625 L 60.5 -14.625 C 61.625 -14.625 62.414062 -14.988281 62.875 -15.71875 C 63.070312 -16.050781 63.269531 -16.578125 63.46875 -17.296875 C 63.664062 -18.023438 63.765625 -19.144531 63.765625 -20.65625 C 63.765625 -20.65625 63.765625 -21.113281 63.765625 -22.03125 C 63.765625 -22.957031 63.765625 -24.113281 63.765625 -25.5 C 63.765625 -26.882812 63.75 -28.269531 63.71875 -29.65625 C 63.6875 -31.039062 63.671875 -32.191406 63.671875 -33.109375 C 63.671875 -34.035156 63.671875 -34.5 63.671875 -34.5 L 39.046875 -34.5 C 38.648438 -34.5 38.085938 -34.679688 37.359375 -35.046875 C 36.640625 -35.410156 36.28125 -36.414062 36.28125 -38.0625 L 36.28125 -45.578125 C 36.28125 -47.160156 36.640625 -48.148438 37.359375 -48.546875 C 38.085938 -48.941406 38.648438 -49.140625 39.046875 -49.140625 L 74.046875 -49.140625 C 74.703125 -49.140625 75.441406 -48.890625 76.265625 -48.390625 C 77.085938 -47.898438 77.5 -46.695312 77.5 -44.78125 L 77.5 -18.28125 C 77.5 -11.757812 76.546875 -7.082031 74.640625 -4.25 C 72.660156 -1.351562 69.828125 0.09375 66.140625 0.09375 L 32.328125 0.09375 C 28.046875 0.09375 24.320312 -0.460938 21.15625 -1.578125 C 18.125 -2.628906 15.585938 -4.441406 13.546875 -7.015625 C 11.503906 -9.648438 10.050781 -12.878906 9.1875 -16.703125 C 8.726562 -18.679688 8.398438 -20.859375 8.203125 -23.234375 C 8.003906 -25.609375 7.90625 -28.175781 7.90625 -30.9375 L 7.90625 -50.515625 C 7.90625 -53.222656 8.003906 -55.757812 8.203125 -58.125 C 8.398438 -60.5 8.726562 -62.644531 9.1875 -64.5625 C 9.65625 -66.53125 10.25 -68.320312 10.96875 -69.9375 C 11.695312 -71.550781 12.554688 -72.988281 13.546875 -74.25 C 15.390625 -76.6875 17.925781 -78.53125 21.15625 -79.78125 C 24.320312 -80.894531 28.046875 -81.453125 32.328125 -81.453125 Z M 74.84375 -81.453125 "/></g></g><g style="fill:#000000;fill-opacity:1;"><g transform="translate(1197.301945, 276.654368)"><path style="stroke:none" d="M 71.765625 -81.453125 C 72.234375 -81.453125 72.828125 -81.253906 73.546875 -80.859375 C 74.273438 -80.472656 74.640625 -79.519531 74.640625 -78 L 74.640625 -3.359375 C 74.640625 -1.847656 74.273438 -0.894531 73.546875 -0.5 C 72.828125 -0.101562 72.234375 0.09375 71.765625 0.09375 L 62.671875 0.09375 C 62.273438 0.09375 61.726562 -0.101562 61.03125 -0.5 C 60.34375 -0.894531 60 -1.847656 60 -3.359375 L 60 -33.8125 L 22.546875 -33.8125 L 22.546875 -3.359375 C 22.546875 -1.847656 22.195312 -0.894531 21.5 -0.5 C 20.8125 -0.101562 20.234375 0.09375 19.765625 0.09375 L 10.78125 0.09375 C 10.3125 0.09375 9.710938 -0.101562 8.984375 -0.5 C 8.265625 -0.894531 7.90625 -1.847656 7.90625 -3.359375 L 7.90625 -78 C 7.90625 -79.519531 8.265625 -80.472656 8.984375 -80.859375 C 9.710938 -81.253906 10.3125 -81.453125 10.78125 -81.453125 L 19.765625 -81.453125 C 20.234375 -81.453125 20.8125 -81.253906 21.5 -80.859375 C 22.195312 -80.472656 22.546875 -79.519531 22.546875 -78 L 22.546875 -48.4375 L 60 -48.4375 L 60 -78 C 60 -79.519531 60.34375 -80.472656 61.03125 -80.859375 C 61.726562 -81.253906 62.273438 -81.453125 62.671875 -81.453125 Z M 71.765625 -81.453125 "/></g></g><g style="fill:#000000;fill-opacity:1;"><g transform="translate(1284.78075, 276.654368)"><path style="stroke:none" d="M 76.21875 -81.453125 C 76.675781 -81.453125 77.269531 -81.269531 78 -80.90625 C 78.726562 -80.550781 79.09375 -79.613281 79.09375 -78.09375 L 79.09375 -70.390625 C 79.09375 -68.742188 78.726562 -67.738281 78 -67.375 C 77.269531 -67.007812 76.675781 -66.828125 76.21875 -66.828125 L 50.8125 -66.828125 L 50.8125 -3.359375 C 50.8125 -1.847656 50.460938 -0.910156 49.765625 -0.546875 C 49.078125 -0.179688 48.503906 0 48.046875 0 L 38.953125 0 C 38.554688 0 37.992188 -0.179688 37.265625 -0.546875 C 36.546875 -0.910156 36.1875 -1.847656 36.1875 -3.359375 L 36.1875 -66.828125 L 10.78125 -66.828125 C 10.3125 -66.828125 9.710938 -67.007812 8.984375 -67.375 C 8.265625 -67.738281 7.90625 -68.742188 7.90625 -70.390625 L 7.90625 -78.09375 C 7.90625 -79.613281 8.265625 -80.550781 8.984375 -80.90625 C 9.710938 -81.269531 10.3125 -81.453125 10.78125 -81.453125 Z M 76.21875 -81.453125 "/></g></g></g></svg>